<svg xmlns="http://www.w3.org/2000/svg" xmlns:xlink="http://www.w3.org/1999/xlink" data-name="Layer 1" viewBox="0 0 459.08 315.08"><defs><linearGradient id="c" x1="169.418" x2="398.141" y1="266.91" y2="266.91" gradientTransform="matrix(.9746 -.0008 -.0008 .9307 3.14 18.57)" gradientUnits="userSpaceOnUse"><stop offset=".006" stop-color="#fdf3ff" class="stopColorfdf3ff svgShape"/><stop offset=".449" stop-color="#d8e4ff" class="stopColord8e4ff svgShape"/><stop offset="1" stop-color="#c3d4ff" class="stopColorc3d4ff svgShape"/></linearGradient><linearGradient id="e" x1="172.45" x2="172.45" y1="90.983" y2="212.289" gradientTransform="matrix(.7542 .0001 .0001 1.1031 90.05 15.252)" gradientUnits="userSpaceOnUse"><stop offset=".006" stop-color="#fdf3ff" class="stopColorfdf3ff svgShape"/><stop offset=".573" stop-color="#d8e4ff" class="stopColord8e4ff svgShape"/><stop offset="1" stop-color="#c3d4ff" class="stopColorc3d4ff svgShape"/></linearGradient><linearGradient id="f" x1="179.987" x2="179.987" y1="46.077" y2="161.462" gradientTransform="matrix(.7572 .0001 .0001 1 83.215 .322)" gradientUnits="userSpaceOnUse"><stop offset=".106" stop-color="#ffffff" class="stopColorfff svgShape"/><stop offset=".41" stop-color="#d0e9ff" class="stopColord0e9ff svgShape"/><stop offset=".951" stop-color="#a4baf0" class="stopColora4baf0 svgShape"/></linearGradient><linearGradient id="a" x1="302.282" x2="302.282" y1="33.207" y2="147.315" gradientTransform="translate(-5.963)" gradientUnits="userSpaceOnUse"><stop offset="0" stop-color="#c3d4ff" class="stopColorc3d4ff svgShape"/><stop offset=".551" stop-color="#d8e4ff" class="stopColord8e4ff svgShape"/><stop offset=".994" stop-color="#fdf3ff" class="stopColorfdf3ff svgShape"/></linearGradient><linearGradient id="g" x1="183.172" x2="183.172" y1="33.207" y2="147.315" xlink:href="#a"/><linearGradient id="b" x1="289.714" x2="289.714" y1="33.207" y2="147.315" gradientTransform="translate(-5.963)" gradientUnits="userSpaceOnUse"><stop offset=".123" stop-color="#d0e9ff" class="stopColord0e9ff svgShape"/><stop offset="1" stop-color="#e8e4f3" class="stopColore8e4f3 svgShape"/></linearGradient><linearGradient id="h" x1="188.543" x2="188.543" y1="33.207" y2="147.315" xlink:href="#b"/><linearGradient id="i" x1="138.223" x2="255.307" y1="168.898" y2="168.898" gradientTransform="translate(-5.963)" gradientUnits="userSpaceOnUse"><stop offset="0" stop-color="#feffe6" class="stopColorfeffe6 svgShape"/><stop offset=".876" stop-color="#d0e9ff" class="stopColord0e9ff svgShape"/></linearGradient><clipPath id="d"><path fill="none" d="M97.833,156.43938c-2.675,44.7408,49.1063,84.7486,93.40049,93.3409,3.5613.6909,7.153,1.2255,10.7654,1.5633,24.41,2.2822,49.0029,3.9598,73.4225,1.7821,25.4589-2.2704,59.19161-8.9368,75.5558-30.8926,17.7793-23.8545,21.9055-57.9913,19.9803-86.7586-3.7816-56.5068-39.9727-114.4748-104.83349-93.8695-14.06591,4.4686-23.87841,14.1309-36.66261,20.9067-17.6095,9.3332-38.0638,11.5174-56.997,17.7749-20.80169,6.875-42.75539,20.2353-57.16629,36.8138C103.92924,130.17928,98.60624,143.50708,97.833,156.43938Z"/></clipPath></defs><path fill="url(#c)" d="M390.39463,264.72638c-1.7902,1.7055-7.625,3.4606-14.2302,5.0298-10.7788,2.5606-27.3702,3.9085-46.29039,5.5099-45.359,3.8391-114.16291,3.0239-145.35131-1.2904-10.2681-1.4204-16.44669-3.2584-16.482-5.2776-.10369-5.9388,50.7198-11.6433,113.5177-12.7412,26.4737-.4629,53.7074-.0207,75.55261,1.3997,14.93339.9709,26.994,2.5605,31.86839,4.5748C391.12763,262.81918,391.40383,263.76488,390.39463,264.72638Z"/><path fill="#979dfe" d="M249.71423,77.76378a16.68066,16.68066,0,0,1-.2466,2.4248c-2.1249,12.1776-16.7418,22.5679-29.56,30.6188q-23.227,14.5884-46.4541,29.1768c-17.876,11.2276-40.97339,23.8816-59.68439,20.8783-8.6057-1.3814-15.2431-6.3947-17.9082-13.5259-5.9403-15.8951,4.0125-37.3145,14.9601-51.3647,22.1215-28.3908,64.98639-44.3066,98.77619-42.0189C224.10323,54.93508,250.18493,60.00248,249.71423,77.76378Z" class="color979dfe svgShape"/><g clip-path="url(#d)" fill="#000000" class="color000 svgShape"><rect width="300.694" height="248.213" x="69.778" y="33.361" fill="url(#e)"/><rect width="301.891" height="105.244" x="68.564" y="34.09" fill="url(#f)"/><rect width="317.406" height="9.689" x="53.037" y="34.091" fill="#9eb8f2" class="color9eb8f2 svgShape"/><polygon fill="#ffffff" points="346.864 120.493 346.864 121.464 244.591 121.487 244.567 34.18 245.773 34.18 346.847 34.156 346.864 120.493" class="colorfff svgShape"/><rect width="101.074" height="86.337" x="245.781" y="34.168" fill="url(#a)"/><polygon fill="#9eb8f2" points="346.864 121.464 344.704 120.241 344.549 34.162 346.847 34.162 346.864 121.464" class="color9eb8f2 svgShape"/><path fill="#9eb8f2" d="M272.88333,88.20248h-16.7104l6.1232-7.6406V79.899a.4612.4612,0,0,1,.4894-.4261h.1431l.0239-.0828.6744-2.4265a.37545.37545,0,0,1,.2746-.2249.78606.78606,0,0,1,.2447-.0355H264.91a.52042.52042,0,0,1,.51929.2604l.6744,2.4265.0238.0828h.1433a.46117.46117,0,0,1,.4893.4261v.6629Z" class="color9eb8f2 svgShape"/><rect width=".478" height="19.23" x="264.29" y="57.734" fill="#9eb8f2" class="color9eb8f2 svgShape"/><path fill="#8181a5" d="M265.50093 79.899v.6629h-3.2048V79.899a.4612.4612 0 01.4894-.4261h2.226A.4612.4612 0 01265.50093 79.899zM266.76013 79.899v.6629h-.5132V79.899a.4612.4612 0 00-.4894-.4261h.5133A.46117.46117 0 01266.76013 79.899z" class="color8181a5 svgShape"/><path fill="#9eb8f2" d="M266.24693,79.899v.6629h-.746V79.899a.4612.4612,0,0,0-.4894-.4261h.746A.4612.4612,0,0,1,266.24693,79.899Z" class="color9eb8f2 svgShape"/><path fill="#aeaed2" d="M265.61433,79.47288h-.7461l-.0239-.0828-.67429-2.4265a.38964.38964,0,0,0-.26851-.2249.78606.78606,0,0,1,.2447-.0355h.2506a.52039.52039,0,0,1,.51921.2604l.67429,2.4265Z" class="coloraeaed2 svgShape"/><polygon fill="#9eb8f2" points="271.385 88.202 269.332 88.202 265.501 80.562 266.247 80.562 271.385 88.202" class="color9eb8f2 svgShape"/><path fill="#9eb8f2" d="M364.26613,64.64168h-16.7105l6.1232-7.6405v-.6629a.4612.4612,0,0,1,.4894-.4261h.1432l.0239-.0829.6743-2.4265a.37547.37547,0,0,1,.2746-.2249.78651.78651,0,0,1,.2447-.0355h.7638a.52081.52081,0,0,1,.51931.2604l.67429,2.4265.0239.0829h.1432a.46129.46129,0,0,1,.4895.4261v.6629Z" class="color9eb8f2 svgShape"/><rect width=".478" height="19.23" x="355.672" y="34.173" fill="#9eb8f2" class="color9eb8f2 svgShape"/><path fill="#8181a5" d="M356.88363 56.33828v.6629h-3.2048v-.6629a.4612.4612 0 01.4894-.4261h2.226A.4612.4612 0 01356.88363 56.33828zM358.14293 56.33828v.6629h-.5133v-.6629a.46126.46126 0 00-.4894-.4261h.5132A.46129.46129 0 01358.14293 56.33828z" class="color8181a5 svgShape"/><path fill="#9eb8f2" d="M357.62963,56.33828v.6629h-.746v-.6629a.4612.4612,0,0,0-.4894-.4261h.746A.46126.46126,0,0,1,357.62963,56.33828Z" class="color9eb8f2 svgShape"/><path fill="#aeaed2" d="M356.997,55.91218h-.746l-.02391-.0829-.6744-2.4265a.38962.38962,0,0,0-.2685-.2249.78651.78651,0,0,1,.2447-.0355h.2506a.52067.52067,0,0,1,.5193.2604l.6743,2.4265Z" class="coloraeaed2 svgShape"/><polygon fill="#9eb8f2" points="362.768 64.642 360.715 64.642 356.884 57.001 357.63 57.001 362.768 64.642" class="color9eb8f2 svgShape"/><path fill="#9eb8f2" d="M322.10283,99.07888h-14.9329l5.4718-6.8279v-.5924a.41225.41225,0,0,1,.4374-.3808h.128l.0212-.074.60271-2.1684a.33562.33562,0,0,1,.24539-.201.70493.70493,0,0,1,.2187-.0317h.6826a.46516.46516,0,0,1,.464.2327l.6026,2.1684.0213.074h.128a.41215.41215,0,0,1,.4373.3808v.5924Z" class="color9eb8f2 svgShape"/><rect width=".427" height="31.316" x="314.423" y="57.72" fill="#9eb8f2" class="color9eb8f2 svgShape"/><path fill="#8181a5" d="M315.50563 91.65858v.5924h-2.8639v-.5924a.41225.41225 0 01.4374-.3808h1.9892A.41209.41209 0 01315.50563 91.65858zM316.63093 91.65858v.5924h-.4586v-.5924a.41225.41225 0 00-.4374-.3808h.4587A.41215.41215 0 01316.63093 91.65858z" class="color8181a5 svgShape"/><path fill="#9eb8f2" d="M316.17233,91.65858v.5924h-.6667v-.5924a.41209.41209,0,0,0-.4373-.3808h.6666A.41225.41225,0,0,1,316.17233,91.65858Z" class="color9eb8f2 svgShape"/><path fill="#aeaed2" d="M315.607,91.27778h-.66671l-.0214-.074-.6025-2.1684a.34836.34836,0,0,0-.24-.201.70493.70493,0,0,1,.2187-.0317h.22391a.4651.4651,0,0,1,.464.2327l.60259,2.1684Z" class="coloraeaed2 svgShape"/><polygon fill="#9eb8f2" points="320.764 99.079 318.93 99.079 315.506 92.251 316.172 92.251 320.764 99.079" class="color9eb8f2 svgShape"/><polygon fill="#ffffff" points="227.755 120.493 227.755 121.464 125.481 121.487 125.458 34.186 126.663 34.186 227.737 34.162 227.755 120.493" class="colorfff svgShape"/><rect width="101.074" height="86.331" x="126.672" y="34.174" fill="url(#g)"/><polygon fill="#9eb8f2" points="227.755 121.464 225.595 120.241 225.44 34.162 227.737 34.162 227.755 121.464" class="color9eb8f2 svgShape"/><path fill="#9eb8f2" d="M212.73353,86.34248h-16.7104l6.1232-7.6406V78.039a.4612.4612,0,0,1,.4894-.4261h.1432l.0239-.0829.6744-2.4265a.375.375,0,0,1,.2744-.2248.78688.78688,0,0,1,.2447-.0356h.764a.52052.52052,0,0,1,.5192.2604l.6744,2.4265.0238.0829h.14331a.46126.46126,0,0,1,.48939.4261v.6629Z" class="color9eb8f2 svgShape"/><rect width=".478" height="19.23" x="204.14" y="55.874" fill="#9eb8f2" class="color9eb8f2 svgShape"/><path fill="#8181a5" d="M205.35113 78.039v.6629h-3.2048V78.039a.4612.4612 0 01.4894-.4261h2.226A.46114.46114 0 01205.35113 78.039zM206.61043 78.039v.6629h-.5133V78.039a.46114.46114 0 00-.4894-.4261h.51331A.46126.46126 0 01206.61043 78.039z" class="color8181a5 svgShape"/><path fill="#9eb8f2" d="M206.09713,78.039v.6629h-.746V78.039a.46114.46114,0,0,0-.4894-.4261h.746A.46114.46114,0,0,1,206.09713,78.039Z" class="color9eb8f2 svgShape"/><path fill="#aeaed2" d="M205.46453,77.61288h-.746l-.0239-.0829-.6743-2.4265a.38966.38966,0,0,0-.2687-.2248.78688.78688,0,0,1,.2447-.0356h.25071a.52042.52042,0,0,1,.51919.2604l.6744,2.4265Z" class="coloraeaed2 svgShape"/><polygon fill="#9eb8f2" points="211.236 86.342 209.183 86.342 205.351 78.702 206.097 78.702 211.236 86.342" class="color9eb8f2 svgShape"/><rect width=".555" height=".137" x="298.032" y="157.282" fill="#8989ad" class="color8989ad svgShape"/><path fill="#8989ad" d="M299.64583,158.47648a.96846.96846,0,0,1-.8312,1.0629h-1.3799v-2.1225h1.3799A.967.967,0,0,1,299.64583,158.47648Z" class="color8989ad svgShape"/><path fill="#707094" d="M298.26683,158.47788a.85714.85714,0,1,1-.8321-1.0624A.96865.96865,0,0,1,298.26683,158.47788Z" class="color707094 svgShape"/><path fill="#adadd1" d="M298.433,158.46568h1.03509a.96408.96408,0,0,0-.8304-1.0488h-1.0349A.96389.96389,0,0,1,298.433,158.46568Z" class="coloradadd1 svgShape"/><path fill="#babade" d="M297.89573,158.47788a.47487.47487,0,1,1-.461-.5886A.53664.53664,0,0,1,297.89573,158.47788Z" class="colorbabade svgShape"/><path fill="#a6a6ca" d="M297.76143,158.47788a.33649.33649,0,1,1-.3267-.4171A.38035.38035,0,0,1,297.76143,158.47788Z" class="colora6a6ca svgShape"/><rect width=".555" height=".137" x="309.402" y="157.282" fill="#8989ad" class="color8989ad svgShape"/><path fill="#8989ad" d="M311.01533,158.47648a.96839.96839,0,0,1-.8311,1.0629h-1.38v-2.1225h1.38A.967.967,0,0,1,311.01533,158.47648Z" class="color8989ad svgShape"/><path fill="#707094" d="M309.63633,158.47788a.85714.85714,0,1,1-.8321-1.0624A.96865.96865,0,0,1,309.63633,158.47788Z" class="color707094 svgShape"/><path fill="#adadd1" d="M309.80253,158.46568h1.035a.96394.96394,0,0,0-.8303-1.0488h-1.035A.964.964,0,0,1,309.80253,158.46568Z" class="coloradadd1 svgShape"/><path fill="#babade" d="M309.26523,158.47788a.47491.47491,0,1,1-.461-.5886A.53664.53664,0,0,1,309.26523,158.47788Z" class="colorbabade svgShape"/><path fill="#a6a6ca" d="M309.13083,158.47788a.3365.3365,0,1,1-.3266-.4171A.38029.38029,0,0,1,309.13083,158.47788Z" class="colora6a6ca svgShape"/><rect width="16.621" height="22.684" x="295.394" y="134.598" fill="#9eb8f2" class="color9eb8f2 svgShape"/><rect width="16.621" height="1.971" x="295.394" y="134.598" fill="#dadafe" class="colordadafe svgShape"/><rect width="61.299" height="1.767" x="253.101" y="132.262" fill="#9eb8f2" class="color9eb8f2 svgShape"/><rect width="1.568" height="27.27" x="312.832" y="132.27" fill="#9eb8f2" class="color9eb8f2 svgShape"/><rect width="1.568" height="27.27" x="253.101" y="132.27" fill="#9eb8f2" class="color9eb8f2 svgShape"/><rect width="61.299" height="2.417" x="253.101" y="129.846" fill="url(#b)"/><path fill="#f8f8ff" d="M297.77833,113.83808h20.3873a.6928.6928,0,0,1,.6928.6928v13.4439a.6929.6929,0,0,1-.6929.6929h-20.3872a.6929.6929,0,0,1-.6929-.6929V114.531A.6929.6929,0,0,1,297.77833,113.83808Z" class="colorf8f8ff svgShape"/><path fill="#9eb8f2" d="M298.30783,114.51988h19.3281a.5585.5585,0,0,1,.5585.5585v12.349a.5585.5585,0,0,1-.5585.5585H298.30772a.55839.55839,0,0,1-.55839-.55839V115.07838A.5585.5585,0,0,1,298.30783,114.51988Z" class="color9eb8f2 svgShape"/><path fill="#aec7f3" d="M298.07013 114.52138l8.0695 5.2927v2.8777l-8.0695 5.2938a.3191.3191 0 01-.3235-.3136V114.835A.3191.3191 0 01298.07013 114.52138zM318.19293 114.835v12.837a.31391.31391 0 01-.3176.3136l-8.0694-5.2938v-2.8777l8.0694-5.2927A.31391.31391 0 01318.19293 114.835z" class="coloraec7f3 svgShape"/><path fill="#f8f8ff" d="M310.34093,131.50258h-4.4747a.44293.44293,0,0,1-.3946-.5318l1.2576-8.9846a.42091.42091,0,0,1,.3945-.3861h1.9595a.421.421,0,0,1,.3947.3861l1.2575,8.9846A.443.443,0,0,1,310.34093,131.50258Z" class="colorf8f8ff svgShape"/><rect width="17.514" height=".322" x="299.215" y="115.126" fill="#9191b5" class="color9191b5 svgShape"/><rect width=".5" height=".834" x="299.046" y="126.71" fill="#9191b5" class="color9191b5 svgShape"/><rect width=".5" height=".834" x="299.831" y="126.71" fill="#9191b5" class="color9191b5 svgShape"/><rect width=".5" height=".834" x="300.615" y="126.71" fill="#9191b5" class="color9191b5 svgShape"/><rect width=".5" height=".834" x="301.399" y="126.71" fill="#9191b5" class="color9191b5 svgShape"/><path fill="#9191b5" d="M308.90663,125.74088a.80316.80316,0,1,1-.8032-.7934A.79832.79832,0,0,1,308.90663,125.74088Z" class="color9191b5 svgShape"/><rect width="39.407" height="3.627" x="331.084" y="238.664" fill="#dee9ff" class="colordee9ff svgShape"/><rect width=".555" height=".137" x="196.862" y="157.282" fill="#8989ad" class="color8989ad svgShape"/><path fill="#8989ad" d="M198.47533,158.47648a.96845.96845,0,0,1-.8312,1.0629h-1.3799v-2.1225h1.3799A.967.967,0,0,1,198.47533,158.47648Z" class="color8989ad svgShape"/><path fill="#707094" d="M197.09633,158.47788a.85714.85714,0,1,1-.8321-1.0624A.96865.96865,0,0,1,197.09633,158.47788Z" class="color707094 svgShape"/><path fill="#adadd1" d="M197.26253,158.46568h1.0351a.96408.96408,0,0,0-.8304-1.0488h-1.0349A.96394.96394,0,0,1,197.26253,158.46568Z" class="coloradadd1 svgShape"/><path fill="#babade" d="M196.72523,158.47788a.47487.47487,0,1,1-.461-.5886A.53664.53664,0,0,1,196.72523,158.47788Z" class="colorbabade svgShape"/><path fill="#a6a6ca" d="M196.59093,158.47788a.33654.33654,0,1,1-.3267-.4171A.38035.38035,0,0,1,196.59093,158.47788Z" class="colora6a6ca svgShape"/><rect width=".555" height=".137" x="208.231" y="157.282" fill="#8989ad" class="color8989ad svgShape"/><path fill="#8989ad" d="M209.84483,158.47648a.96839.96839,0,0,1-.8311,1.0629h-1.38v-2.1225h1.38A.967.967,0,0,1,209.84483,158.47648Z" class="color8989ad svgShape"/><path fill="#707094" d="M208.46583,158.47788a.85718.85718,0,1,1-.8321-1.0624A.96865.96865,0,0,1,208.46583,158.47788Z" class="color707094 svgShape"/><path fill="#adadd1" d="M208.632,158.46568h1.035a.964.964,0,0,0-.83031-1.0488h-1.035A.964.964,0,0,1,208.632,158.46568Z" class="coloradadd1 svgShape"/><path fill="#babade" d="M208.09473,158.47788a.47491.47491,0,1,1-.461-.5886A.53664.53664,0,0,1,208.09473,158.47788Z" class="colorbabade svgShape"/><path fill="#a6a6ca" d="M207.96033,158.47788a.3365.3365,0,1,1-.3266-.4171A.38035.38035,0,0,1,207.96033,158.47788Z" class="colora6a6ca svgShape"/><rect width="16.621" height="22.684" x="194.224" y="134.598" fill="#9eb8f2" class="color9eb8f2 svgShape"/><rect width="16.621" height="1.971" x="194.224" y="134.598" fill="#dadafe" class="colordadafe svgShape"/><rect width="61.299" height="1.767" x="151.93" y="132.262" fill="#9eb8f2" class="color9eb8f2 svgShape"/><rect width="1.568" height="27.27" x="211.661" y="132.27" fill="#9eb8f2" class="color9eb8f2 svgShape"/><rect width="1.568" height="27.27" x="151.93" y="132.27" fill="#9eb8f2" class="color9eb8f2 svgShape"/><rect width="61.299" height="2.417" x="151.93" y="129.846" fill="url(#h)"/><rect width="117.084" height="3.374" x="132.26" y="172.39" fill="#9eb8f2" class="color9eb8f2 svgShape"/><rect width="2.995" height="52.088" x="246.349" y="172.404" fill="#9eb8f2" class="color9eb8f2 svgShape"/><rect width="2.995" height="52.088" x="132.26" y="172.404" fill="#9eb8f2" class="color9eb8f2 svgShape"/><rect width="117.084" height="6.983" x="132.26" y="165.406" fill="url(#i)"/><path fill="#f8f8ff" d="M170.72624,135.23438h40.4647a1.37519,1.37519,0,0,1,1.37519,1.37519v26.68361a1.3752,1.3752,0,0,1-1.3752,1.3752H170.72624a1.3752,1.3752,0,0,1-1.3752-1.3752v-26.6836A1.3752,1.3752,0,0,1,170.72624,135.23438Z" class="colorf8f8ff svgShape"/><path fill="#9eb8f2" d="M171.777,136.58768H210.14a1.1085,1.1085,0,0,1,1.1085,1.1085v24.5105a1.1084,1.1084,0,0,1-1.1084,1.1084H171.777a1.1084,1.1084,0,0,1-1.1084-1.1084v-24.5106A1.1084,1.1084,0,0,1,171.777,136.58768Z" class="color9eb8f2 svgShape"/><path fill="#aec7f3" d="M171.30533 136.59048l16.0165 10.505v5.7117l-16.0165 10.5073a.6332.6332 0 01-.642-.6226v-25.4787A.63328.63328 0 01171.30533 136.59048zM211.24523 137.21318v25.4787a.62288.62288 0 01-.63019.6226l-16.01631-10.5073v-5.7117l16.01631-10.505A.623.623 0 01211.24523 137.21318z" class="coloraec7f3 svgShape"/><path fill="#f8f8ff" d="M195.66053,170.29508H186.779a.87944.87944,0,0,1-.78321-1.0556l2.49621-17.8326a.83526.83526,0,0,1,.78309-.7664h3.8892a.83528.83528,0,0,1,.7831.7664l2.4963,17.8326A.8795.8795,0,0,1,195.66053,170.29508Z" class="colorf8f8ff svgShape"/><rect width="34.762" height=".639" x="173.578" y="137.791" fill="#9191b5" class="color9191b5 svgShape"/><rect width=".992" height="1.656" x="173.243" y="160.784" fill="#9191b5" class="color9191b5 svgShape"/><rect width=".992" height="1.656" x="174.799" y="160.784" fill="#9191b5" class="color9191b5 svgShape"/><rect width=".992" height="1.656" x="176.356" y="160.784" fill="#9191b5" class="color9191b5 svgShape"/><rect width=".992" height="1.656" x="177.912" y="160.784" fill="#9191b5" class="color9191b5 svgShape"/><path fill="#9191b5" d="M192.81373,158.859a1.59412,1.59412,0,1,1-1.5939-1.5746A1.58451,1.58451,0,0,1,192.81373,158.859Z" class="color9191b5 svgShape"/><rect width="2.192" height="164.265" x="366.511" y="75.006" fill="#9eb8f2" class="color9eb8f2 svgShape"/><rect width="2.192" height="164.265" x="336.843" y="75.006" fill="#9eb8f2" class="color9eb8f2 svgShape"/><rect width="2.192" height="167.285" x="330.596" y="75.006" fill="#9eb8f2" class="color9eb8f2 svgShape"/><rect width="36.871" height="1.479" x="331.279" y="101.807" fill="#9eb8f2" class="color9eb8f2 svgShape"/><rect width="38.089" height="1.48" x="330.602" y="74.778" fill="#9eb8f2" class="color9eb8f2 svgShape"/><rect width="36.871" height="1.48" x="331.486" y="129.963" fill="#9eb8f2" class="color9eb8f2 svgShape"/><rect width="36.871" height="1.479" x="331.692" y="158.12" fill="#9eb8f2" class="color9eb8f2 svgShape"/><rect width="36.871" height="1.48" x="331.899" y="186.276" fill="#9eb8f2" class="color9eb8f2 svgShape"/><rect width="36.871" height="1.48" x="332.106" y="214.432" fill="#9eb8f2" class="color9eb8f2 svgShape"/><rect width="3.971" height="21.58" x="333.532" y="80.161" fill="#dee9ff" class="colordee9ff svgShape"/><rect width="9.023" height="21.58" x="337.504" y="80.161" fill="#9eb8f2" class="color9eb8f2 svgShape"/><rect width="2.332" height="11.566" x="334.375" y="81.317" fill="#f8f8ff" class="colorf8f8ff svgShape"/><rect width="2.332" height="1.318" x="334.375" y="82.483" fill="#9eb8f2" class="color9eb8f2 svgShape"/><path fill="#f8f8ff" d="M336.89763,95.77948a1.3567,1.3567,0,1,1-1.3567-1.3403A1.3485,1.3485,0,0,1,336.89763,95.77948Z" class="colorf8f8ff svgShape"/><path fill="#9292b6" d="M336.58033,95.77948a1.03938,1.03938,0,1,1-1.0394-1.0267A1.03317,1.03317,0,0,1,336.58033,95.77948Z" class="color9292b6 svgShape"/><polygon fill="#dee9ff" points="344.213 101.741 340.82 103.781 329.465 85.346 332.858 83.306 344.213 101.741" class="colordee9ff svgShape"/><polygon fill="#9eb8f2" points="351.921 97.107 344.213 101.741 332.858 83.306 340.566 78.672 351.921 97.107" class="color9eb8f2 svgShape"/><polygon fill="#f8f8ff" points="338.871 94.583 336.879 95.781 330.793 85.9 332.785 84.703 338.871 94.583" class="colorf8f8ff svgShape"/><polygon fill="#9eb8f2" points="334.092 86.825 332.1 88.022 331.407 86.896 333.399 85.699 334.092 86.825" class="color9eb8f2 svgShape"/><path fill="#f8f8ff" d="M340.55833,96.95958a1.331,1.331,0,0,1-.4537,1.8416,1.366,1.366,0,0,1-1.8641-.4481,1.3311,1.3311,0,0,1,.4536-1.8417A1.36621,1.36621,0,0,1,340.55833,96.95958Z" class="colorf8f8ff svgShape"/><path fill="#9292b6" d="M340.28723,97.12258a1.01953,1.01953,0,0,1-.3476,1.4108,1.04644,1.04644,0,0,1-1.428-.3433,1.01977,1.01977,0,0,1,.34741-1.4109A1.04667,1.04667,0,0,1,340.28723,97.12258Z" class="color9292b6 svgShape"/><rect width="3.971" height="21.58" x="347.876" y="80.161" fill="#dee9ff" class="colordee9ff svgShape"/><rect width="9.023" height="21.58" x="351.847" y="80.161" fill="#9eb8f2" class="color9eb8f2 svgShape"/><rect width="2.332" height="11.566" x="348.719" y="81.317" fill="#f8f8ff" class="colorf8f8ff svgShape"/><rect width="2.332" height="1.318" x="348.719" y="82.483" fill="#9eb8f2" class="color9eb8f2 svgShape"/><path fill="#f8f8ff" d="M351.241,95.77948a1.3567,1.3567,0,1,1-1.35661-1.3403A1.34842,1.34842,0,0,1,351.241,95.77948Z" class="colorf8f8ff svgShape"/><path fill="#9292b6" d="M350.92363,95.77948a1.03933,1.03933,0,1,1-1.0392-1.0267A1.03307,1.03307,0,0,1,350.92363,95.77948Z" class="color9292b6 svgShape"/><rect width="3.971" height="21.58" x="347.966" y="108.357" fill="#dee9ff" class="colordee9ff svgShape"/><rect width="9.023" height="21.58" x="351.938" y="108.357" fill="#9eb8f2" class="color9eb8f2 svgShape"/><rect width="2.332" height="11.566" x="348.809" y="109.513" fill="#f8f8ff" class="colorf8f8ff svgShape"/><rect width="2.332" height="1.318" x="348.809" y="110.678" fill="#9eb8f2" class="color9eb8f2 svgShape"/><path fill="#f8f8ff" d="M351.33173,123.97538a1.35675,1.35675,0,1,1-1.35669-1.3402A1.3485,1.3485,0,0,1,351.33173,123.97538Z" class="colorf8f8ff svgShape"/><path fill="#9292b6" d="M351.01433,123.97538a1.03933,1.03933,0,1,1-1.03929-1.0268A1.03294,1.03294,0,0,1,351.01433,123.97538Z" class="color9292b6 svgShape"/><rect width="3.971" height="21.58" x="353.199" y="108.357" fill="#dee9ff" class="colordee9ff svgShape"/><rect width="9.023" height="21.58" x="357.171" y="108.357" fill="#9eb8f2" class="color9eb8f2 svgShape"/><rect width="2.332" height="11.566" x="354.042" y="109.513" fill="#f8f8ff" class="colorf8f8ff svgShape"/><rect width="2.332" height="1.318" x="354.042" y="110.678" fill="#9eb8f2" class="color9eb8f2 svgShape"/><ellipse cx="355.208" cy="123.975" fill="#f8f8ff" rx="1.357" ry="1.34" class="colorf8f8ff svgShape"/><path fill="#9292b6" d="M356.24723,123.97538a1.03938,1.03938,0,1,1-1.0394-1.0268A1.03309,1.03309,0,0,1,356.24723,123.97538Z" class="color9292b6 svgShape"/><polygon fill="#dee9ff" points="347.855 184.763 344.513 186.882 332.717 168.719 336.059 166.6 347.855 184.763" class="colordee9ff svgShape"/><polygon fill="#9eb8f2" points="357.229 181.708 347.855 184.763 336.059 166.6 345.433 163.545 357.229 181.708" class="color9eb8f2 svgShape"/><polygon fill="#f8f8ff" points="342.343 177.733 340.38 178.977 334.058 169.242 336.02 167.998 342.343 177.733" class="colorf8f8ff svgShape"/><polygon fill="#9eb8f2" points="337.378 170.089 335.416 171.333 334.695 170.223 336.658 168.979 337.378 170.089" class="color9eb8f2 svgShape"/><path fill="#f8f8ff" d="M344.08643,180.06888a1.33063,1.33063,0,0,1-.4092,1.8518,1.36641,1.36641,0,0,1-1.8744-.4041,1.33063,1.33063,0,0,1,.40921-1.8518A1.36632,1.36632,0,0,1,344.08643,180.06888Z" class="colorf8f8ff svgShape"/><path fill="#9292b6" d="M343.81933,180.23828a1.01932,1.01932,0,0,1-.3135,1.4186,1.04685,1.04685,0,0,1-1.436-.3097,1.01941,1.01941,0,0,1,.3136-1.4186A1.04684,1.04684,0,0,1,343.81933,180.23828Z" class="color9292b6 svgShape"/><rect width="3.971" height="21.58" x="347.966" y="164.749" fill="#dee9ff" class="colordee9ff svgShape"/><rect width="9.023" height="21.58" x="351.938" y="164.749" fill="#9eb8f2" class="color9eb8f2 svgShape"/><rect width="2.332" height="11.566" x="348.809" y="165.905" fill="#f8f8ff" class="colorf8f8ff svgShape"/><rect width="2.332" height="1.318" x="348.809" y="167.07" fill="#9eb8f2" class="color9eb8f2 svgShape"/><path fill="#f8f8ff" d="M351.33173,180.36718a1.35675,1.35675,0,1,1-1.35669-1.3402A1.34858,1.34858,0,0,1,351.33173,180.36718Z" class="colorf8f8ff svgShape"/><path fill="#9292b6" d="M351.01433,180.36718a1.03933,1.03933,0,1,1-1.03929-1.0267A1.03294,1.03294,0,0,1,351.01433,180.36718Z" class="color9292b6 svgShape"/><rect width="3.971" height="21.58" x="353.199" y="164.749" fill="#dee9ff" class="colordee9ff svgShape"/><rect width="9.023" height="21.58" x="357.171" y="164.749" fill="#9eb8f2" class="color9eb8f2 svgShape"/><rect width="2.332" height="11.566" x="354.042" y="165.905" fill="#f8f8ff" class="colorf8f8ff svgShape"/><rect width="2.332" height="1.318" x="354.042" y="167.07" fill="#9eb8f2" class="color9eb8f2 svgShape"/><path fill="#f8f8ff" d="M356.56443,180.36718a1.3567,1.3567,0,1,1-1.3566-1.3402A1.34855,1.34855,0,0,1,356.56443,180.36718Z" class="colorf8f8ff svgShape"/><path fill="#9292b6" d="M356.24723,180.36718a1.03938,1.03938,0,1,1-1.0394-1.0267A1.03309,1.03309,0,0,1,356.24723,180.36718Z" class="color9292b6 svgShape"/><rect width="3.971" height="21.58" x="332.902" y="136.553" fill="#9eb8f2" class="color9eb8f2 svgShape"/><rect width="9.023" height="21.58" x="336.873" y="136.553" fill="#9eb8f2" class="color9eb8f2 svgShape"/><rect width="2.332" height="11.566" x="333.745" y="137.709" fill="#f8f8ff" class="colorf8f8ff svgShape"/><rect width="2.332" height="1.318" x="333.745" y="138.874" fill="#9eb8f2" class="color9eb8f2 svgShape"/><path fill="#f8f8ff" d="M336.26693,152.17128a1.3567,1.3567,0,1,1-1.3566-1.3402A1.3485,1.3485,0,0,1,336.26693,152.17128Z" class="colorf8f8ff svgShape"/><path fill="#9292b6" d="M335.94963,152.17128a1.03937,1.03937,0,1,1-1.0393-1.0267A1.03309,1.03309,0,0,1,335.94963,152.17128Z" class="color9292b6 svgShape"/><rect width="3.971" height="21.58" x="338.134" y="136.553" fill="#9eb8f2" class="color9eb8f2 svgShape"/><rect width="9.023" height="21.58" x="342.106" y="136.553" fill="#9eb8f2" class="color9eb8f2 svgShape"/><rect width="2.332" height="11.566" x="338.977" y="137.709" fill="#f8f8ff" class="colorf8f8ff svgShape"/><rect width="2.332" height="1.318" x="338.977" y="138.874" fill="#9eb8f2" class="color9eb8f2 svgShape"/><path fill="#f8f8ff" d="M341.49983,152.17128a1.35675,1.35675,0,1,1-1.3567-1.3402A1.34858,1.34858,0,0,1,341.49983,152.17128Z" class="colorf8f8ff svgShape"/><path fill="#9292b6" d="M341.18243,152.17128a1.03938,1.03938,0,1,1-1.0393-1.0267A1.03315,1.03315,0,0,1,341.18243,152.17128Z" class="color9292b6 svgShape"/><rect width="3.971" height="21.58" x="332.902" y="192.832" fill="#9eb8f2" class="color9eb8f2 svgShape"/><rect width="9.023" height="21.58" x="336.873" y="192.832" fill="#9eb8f2" class="color9eb8f2 svgShape"/><rect width="2.332" height="11.566" x="333.745" y="193.987" fill="#f8f8ff" class="colorf8f8ff svgShape"/><rect width="2.332" height="1.318" x="333.745" y="195.153" fill="#9eb8f2" class="color9eb8f2 svgShape"/><path fill="#f8f8ff" d="M336.26693,208.45008a1.3567,1.3567,0,1,1-1.3566-1.3403A1.34841,1.34841,0,0,1,336.26693,208.45008Z" class="colorf8f8ff svgShape"/><path fill="#9292b6" d="M335.94963,208.45008a1.03937,1.03937,0,1,1-1.0393-1.0268A1.03307,1.03307,0,0,1,335.94963,208.45008Z" class="color9292b6 svgShape"/><rect width="3.971" height="21.58" x="338.134" y="192.832" fill="#9eb8f2" class="color9eb8f2 svgShape"/><rect width="9.023" height="21.58" x="342.106" y="192.832" fill="#9eb8f2" class="color9eb8f2 svgShape"/><rect width="2.332" height="11.566" x="338.977" y="193.987" fill="#f8f8ff" class="colorf8f8ff svgShape"/><rect width="2.332" height="1.318" x="338.977" y="195.153" fill="#9eb8f2" class="color9eb8f2 svgShape"/><path fill="#f8f8ff" d="M341.49983,208.45008a1.35675,1.35675,0,1,1-1.3567-1.3403A1.3485,1.3485,0,0,1,341.49983,208.45008Z" class="colorf8f8ff svgShape"/><path fill="#9292b6" d="M341.18243,208.45008a1.03938,1.03938,0,1,1-1.0393-1.0268A1.03313,1.03313,0,0,1,341.18243,208.45008Z" class="color9292b6 svgShape"/><polygon fill="#9eb8f2" points="353.264 156.666 343.52 156.655 351.53 136.578 361.274 136.589 353.264 156.666" class="color9eb8f2 svgShape"/><polygon fill="#f8f8ff" points="347.121 158.133 343.426 156.694 351.53 136.88 361.274 136.891 364.091 138.066 347.121 158.133" class="colorf8f8ff svgShape"/><polygon fill="#9eb8f2" points="347.121 158.133 343.426 156.694 351.436 136.617 355.131 138.056 347.121 158.133" class="color9eb8f2 svgShape"/><polygon fill="#9eb8f2" points="356.865 158.144 347.121 158.133 355.131 138.056 364.875 138.067 356.865 158.144" class="color9eb8f2 svgShape"/><polygon fill="#f8f8ff" points="349.668 149.603 347.498 148.759 351.791 137.998 353.96 138.843 349.668 149.603" class="colorf8f8ff svgShape"/><polygon fill="#9eb8f2" points="353.038 141.154 350.869 140.309 351.359 139.082 353.528 139.927 353.038 141.154" class="color9eb8f2 svgShape"/><path fill="#f8f8ff" d="M348.77,152.367a1.36188,1.36188,0,0,1-1.75951.7554,1.33481,1.33481,0,0,1-.7647-1.7382,1.362,1.362,0,0,1,1.7595-.7555A1.335,1.335,0,0,1,348.77,152.367Z" class="colorf8f8ff svgShape"/><path fill="#9292b6" d="M348.47483,152.252a1.04348,1.04348,0,0,1-1.348.5788,1.02265,1.02265,0,0,1-.58579-1.3316,1.04344,1.04344,0,0,1,1.348-.5788A1.02263,1.02263,0,0,1,348.47483,152.252Z" class="color9292b6 svgShape"/><rect width="3.971" height="21.58" x="353.108" y="80.161" fill="#dee9ff" class="colordee9ff svgShape"/><rect width="9.023" height="21.58" x="357.08" y="80.161" fill="#9eb8f2" class="color9eb8f2 svgShape"/><rect width="2.192" height="167.285" x="360.47" y="75.006" fill="#9eb8f2" class="color9eb8f2 svgShape"/><rect width="2.332" height="11.566" x="353.951" y="81.317" fill="#f8f8ff" class="colorf8f8ff svgShape"/><rect width="2.332" height="1.318" x="353.951" y="82.483" fill="#9eb8f2" class="color9eb8f2 svgShape"/><path fill="#f8f8ff" d="M356.47383,95.77948a1.35675,1.35675,0,1,1-1.3567-1.3403A1.3485,1.3485,0,0,1,356.47383,95.77948Z" class="colorf8f8ff svgShape"/><path fill="#9292b6" d="M356.15653,95.77948a1.03938,1.03938,0,1,1-1.0394-1.0267A1.03324,1.03324,0,0,1,356.15653,95.77948Z" class="color9292b6 svgShape"/><path fill="#f8f8ff" d="M186.07053,113.83808h20.3872a.6929.6929,0,0,1,.6929.6929v13.4438a.6929.6929,0,0,1-.6929.6929h-20.3872a.6928.6928,0,0,1-.6928-.6928v-13.444A.6928.6928,0,0,1,186.07053,113.83808Z" class="colorf8f8ff svgShape"/><path fill="#9eb8f2" d="M186.60013,114.51988h19.32829a.55841.55841,0,0,1,.55841.55841v12.34909a.5585.5585,0,0,1-.5585.5585h-19.3282a.5585.5585,0,0,1-.5585-.5585v-12.349A.5585.5585,0,0,1,186.60013,114.51988Z" class="color9eb8f2 svgShape"/><path fill="#aec7f3" d="M186.36233 114.52138l8.0695 5.2927v2.8777l-8.0695 5.2938a.319.319 0 01-.3234-.3136V114.835A.319.319 0 01186.36233 114.52138zM206.485 114.835v12.837a.31381.31381 0 01-.31741.3136l-8.0695-5.2938v-2.8777l8.0695-5.2927A.31381.31381 0 01206.485 114.835z" class="coloraec7f3 svgShape"/><path fill="#f8f8ff" d="M198.63313,131.50258h-4.4748a.443.443,0,0,1-.3945-.5318l1.2576-8.9846a.42077.42077,0,0,1,.39461-.3861h1.95949a.42077.42077,0,0,1,.39451.3861l1.25769,8.9846A.4431.4431,0,0,1,198.63313,131.50258Z" class="colorf8f8ff svgShape"/><rect width="17.514" height=".322" x="187.507" y="115.126" fill="#9191b5" class="color9191b5 svgShape"/><rect width=".5" height=".834" x="187.339" y="126.71" fill="#9191b5" class="color9191b5 svgShape"/><rect width=".5" height=".834" x="188.123" y="126.71" fill="#9191b5" class="color9191b5 svgShape"/><rect width=".5" height=".834" x="188.907" y="126.71" fill="#9191b5" class="color9191b5 svgShape"/><rect width=".5" height=".834" x="189.691" y="126.71" fill="#9191b5" class="color9191b5 svgShape"/><ellipse cx="196.396" cy="125.741" fill="#9191b5" rx=".803" ry=".793" class="color9191b5 svgShape"/><path fill="#9eb8f2" d="M147.60794,99.07888H132.675l5.4718-6.8279v-.5924a.41215.41215,0,0,1,.4373-.3808h.128l.0213-.074.6027-2.1684a.33565.33565,0,0,1,.2454-.201.70448.70448,0,0,1,.2187-.0317h.6826a.46528.46528,0,0,1,.464.2327l.6026,2.1684.0213.074h.128a.41215.41215,0,0,1,.4373.3808v.5924Z" class="color9eb8f2 svgShape"/><rect width=".427" height="31.316" x="139.928" y="57.72" fill="#9eb8f2" class="color9eb8f2 svgShape"/><path fill="#8181a5" d="M141.01074 91.65858v.5924h-2.8639v-.5924a.41215.41215 0 01.4373-.3808h1.9893A.41215.41215 0 01141.01074 91.65858zM142.136 91.65858v.5924h-.4586v-.5924a.41215.41215 0 00-.4373-.3808h.4586A.41215.41215 0 01142.136 91.65858z" class="color8181a5 svgShape"/><path fill="#9eb8f2" d="M141.67744,91.65858v.5924h-.6667v-.5924a.41215.41215,0,0,0-.4373-.3808h.6667A.41215.41215,0,0,1,141.67744,91.65858Z" class="color9eb8f2 svgShape"/><path fill="#aeaed2" d="M141.11214,91.27778h-.6667l-.0214-.074-.6025-2.1684a.34836.34836,0,0,0-.24-.201.70448.70448,0,0,1,.2187-.0317h.224a.465.465,0,0,1,.4639.2327l.6026,2.1684Z" class="coloraeaed2 svgShape"/><polygon fill="#9eb8f2" points="146.269 99.079 144.435 99.079 141.011 92.251 141.677 92.251 146.269 99.079" class="color9eb8f2 svgShape"/></g><path fill="#222b54" fill-rule="evenodd" d="M95.763,231.14208c.5407,1.6454,1.3328,3.5011,2.8086,3.9616,1.0233.3193,4.3247-1.7042,5.0451-2.5166s4.5765-39.9811,3.5782-42.3657c-1.3392-3.1989-16.2416,1.2191-16.5612,6.7684a89.07862,89.07862,0,0,0,1.8806,21.6763A103.30409,103.30409,0,0,0,95.763,231.14208Z" class="color222b54 svgShape"/><path fill="#f4a086" d="M69.85224 263.23478a10.451 10.451 0 004.5376 1.1932q.76395-2.65425 1.5279-5.3086a1.38834 1.38834 0 00.077-.6854 1.25031 1.25031 0 00-.6796-.7257c-1.1284-.6341-2.9341-1.3421-3.5023.149C71.13384 259.63928 70.50684 261.44358 69.85224 263.23478zM98.61774 267.50258a10.49311 10.49311 0 004.6836-.3766q-.108-2.75745-.2158-5.515a1.373 1.373 0 00-.142-.6722 1.22412 1.22412 0 00-.8732-.4598c-1.2706-.2247-3.2076-.2948-3.279 1.3003C98.70594 263.68548 98.677 265.59568 98.61774 267.50258z" class="colorf4a086 svgShape"/><path fill="#222b54" fill-rule="evenodd" d="M104.06824,226.63308c-1.5601-3.2547-6.1405-5.4855-9.027.1604-4.4021,8.6105,3.2183,24.7167,3.1832,35.1149h5.34C103.85984,260.90178,104.93364,228.43868,104.06824,226.63308Z" class="color222b54 svgShape"/><path fill="#0a3c5f" fill-rule="evenodd" d="M83.70384,199.75858a7.32069,7.32069,0,0,0,4.6316,1.1808c13.2735,0,19.1185-3.1576,19.1185-10.4139,0-6.5408-13.7644-5.252-19.969-3.2338-1.3374.435-3.2863.8562-4.2,2.1051C81.96054,191.20688,80.54524,197.27038,83.70384,199.75858Z" class="color0a3c5f svgShape"/><path fill="#f4a086" d="M101.85954,156.82c.4318,6.1013,1.6284,12.3519,5.0607,17.4147.7397,1.0912,1.8143,2.2235,3.1253,2.0856a2.61077,2.61077,0,0,0,1.8462-1.2582,6.06858,6.06858,0,0,0,.7492-2.1716c1.112-5.9616-.7076-12.0372-2.5199-17.8245-.7464-2.3837-1.7387-6.6033-4.1652-7.8885-2.5276-1.3388-3.8001,2.7966-4.0317,4.4829A25.00684,25.00684,0,0,0,101.85954,156.82Z" class="colorf4a086 svgShape"/><path fill="#66bcd5" fill-rule="evenodd" d="M101.56854,148.15148c.1162-1.0092.386-2.1987,1.3232-2.6391.9884-.4645,2.0492.2136,2.8181.9034,4.6601,4.1806,6.4261,10.0813,7.2711,16.4144l-11.1748.6896A59.04973,59.04973,0,0,1,101.56854,148.15148Z" class="color66bcd5 svgShape"/><path fill="#0a3c5f" fill-rule="evenodd" d="M84.83174,231.14218c.4492,1.6453,1.1381,3.501,2.5883,3.9615,1.0056.3193,3.1647-3.8334,3.9303-4.6456.7656-.8124,8.1763-31.5443,7.3106-33.9289a9.07361,9.07361,0,0,0-7.0697-5.7476c-4.3529-.6931-9.3613.6589-9.9894,6.2082a88.20688,88.20688,0,0,0,.6751,21.6763A99.57579,99.57579,0,0,0,84.83174,231.14218Z" class="color0a3c5f svgShape"/><path fill="#f7b690" d="M117.11644,173.30408a1.90772,1.90772,0,0,1-.5765,2.0845,9.23158,9.23158,0,0,1-8.3512.6668c-1.9412-.8584-2.2354-2.7282-1.5548-4.5032C107.58124,169.082,116.74364,172.47158,117.11644,173.30408Z" class="colorf7b690 svgShape"/><path fill="#0a3c5f" fill-rule="evenodd" d="M92.32594,227.80818c-.1141-3.4827-3.97-7.5566-8.5846-2.8424-7.4302,7.5904-9.6018,22.0683-12.4978,32.8285l5.0388,1.7681C76.98084,258.74078,92.38934,229.74388,92.32594,227.80818Z" class="color0a3c5f svgShape"/><path fill="#66bcd5" fill-rule="evenodd" d="M81.01324,170.33488c-1.8106-5.8104-4.0345-12.9879-3.0316-19.063,2.4597-3.0033,7.4898-9.9746,17.4631-9.9746,6.9961,0,12.2337,7.0639,13.4473,8.8587,1.3523,2.0002.8615,4.8509.5246,7.164-.7183,4.9312-2.8531,24.3067-.9987,37.7551h-28.248C80.224,188.66148,82.83794,176.19058,81.01324,170.33488Z" class="color66bcd5 svgShape"/><path fill="#f4a086" d="M74.51434,163.27008a28.72366,28.72366,0,0,1,8.4818-13.9434c.7372-.6654,1.737-1.332,2.6507-.9428a1.84739,1.84739,0,0,1,.9785,1.2295,5.18873,5.18873,0,0,1,.1115,1.6144,133.34884,133.34884,0,0,1-2.5431,18.768,22.73894,22.73894,0,0,1-1.5355,5.6006,7.65692,7.65692,0,0,1-3.9967,4.0365c-.9504.3601-2.5049.572-3.3809-.1119-.7045-.5503-.8212-1.9516-.9994-2.7486a28.85029,28.85029,0,0,1-.5948-8.6412A28.33613,28.33613,0,0,1,74.51434,163.27008Z" class="colorf4a086 svgShape"/><path fill="#18898d" fill-rule="evenodd" d="M72.92834,165.27588a.48079.48079,0,0,0-.0149.1181C72.91744,165.35458,72.92414,165.31538,72.92834,165.27588Z" class="color18898d svgShape"/><path fill="#66bcd5" fill-rule="evenodd" d="M86.91454,148.15148c-.0526-1.0092-.2475-2.1987-1.157-2.6391-.9592-.4645-2.7418.4113-3.5541,1.1011-4.9232,4.1806-7.6622,9.8836-8.9059,16.2167l12.4119.6896A59.5659,59.5659,0,0,0,86.91454,148.15148Z" class="color66bcd5 svgShape"/><path fill="#f4a086" d="M98.247,134.30458c-.6831-3.015-2.9645-3.7214-4.291-2.9978-.85,5.6438-1.7164,8.1523-3.9286,11.2308,2.7502,1.7634,7.4459,1.4352,8.4608,0A62.0237,62.0237,0,0,0,98.247,134.30458Z" class="colorf4a086 svgShape"/><path fill="#f7b690" d="M98.09824,127.22548a4.69571,4.69571,0,0,1,7.2277,3.2425c.5194,3.1972-2.6955,8.6829-4.2204,9.573-2.6666,1.5565-6.2517-2.1795-6.3773-3.9716C94.54434,133.44428,95.80224,128.81328,98.09824,127.22548Z" class="colorf7b690 svgShape"/><path fill="#222b56" fill-rule="evenodd" d="M96.15614,127.897a.77892.77892,0,0,0-.7345-.0253,2.30205,2.30205,0,0,0-.6147.4522,12.68223,12.68223,0,0,0-1.7868,1.8931,4.256,4.256,0,0,0-.8679,2.4153,4.89326,4.89326,0,0,1-.0479,1.679c-.1734.4745-.6136.9115-.4817,1.3992a.82248.82248,0,0,0,.884.5355,1.45964,1.45964,0,0,0,.9338-.575,7.66577,7.66577,0,0,0,.5927-.9551c.6349-1.0717,1.5602-1.9455,2.2203-3.0019a3.61131,3.61131,0,0,0,.4312-3.536Z" class="color222b56 svgShape"/><path fill="#222b56" fill-rule="evenodd" d="M108.824,129.30748q-.8844-.358-1.7689-.7159a3.02067,3.02067,0,0,1,.6555,1.1027.91211.91211,0,0,1-1.345,1.1142,3.01822,3.01822,0,0,1-.7666-.6431,1.5787,1.5787,0,0,1,.2471.7169.5418.5418,0,0,1-.4191.5597.79693.79693,0,0,1-.5445-.2364q-1.20045-.9459-2.401-1.892a2.22559,2.22559,0,0,1,.0539.7599.75452.75452,0,0,1-.4247.5959c-.4172.1642-.8462-.2078-1.0999-.5775s-.5178-.8141-.9613-.8804c-.4983-.0746-.9057.3714-1.2106.7726l-.1638.2155q-.84165,1.1076-1.6834,2.2151a2.65649,2.65649,0,0,1-.5824.6165.89877.89877,0,0,1-.8072.1393c-.4523-.1735-5.3412-7.3863.9142-9.5893a5.48262,5.48262,0,0,1,3.0998.3226,22.75926,22.75926,0,0,0,2.7272.9151c.7488.1346,1.5181.0834,2.2752.1584A4.79436,4.79436,0,0,1,108.824,129.30748Z" class="color222b56 svgShape"/><path fill="#f7b690" d="M93.25724,130.83678a2.97,2.97,0,0,0,.0185,2.2253c.842,2.0072,2.8095.2072,2.9049-1.2461C96.29434,130.08358,94.02574,128.91548,93.25724,130.83678Z" class="colorf7b690 svgShape"/><path fill="#66bcd5" fill-rule="evenodd" d="M113.24914 270.20358a1.6709 1.6709 0 00-1.4027-1.5749 10.39246 10.39246 0 00-2.2936-.0514 6.19354 6.19354 0 01-5.3164-3.2816 1.56649 1.56649 0 00-.5338-.7097 1.02927 1.02927 0 00-1.1115.2041c-.3096.2541-.5283.601-.8111.8846a2.72459 2.72459 0 01-1.9465.7792c-.6001-.0089-1.2721-.4673-1.8487-.1643-.5089.2674-.6459.9722-.7749 1.4746-.2222.8656-.4237 1.7372-.6355 2.6054a3.642 3.642 0 00-.107.5912h4.1688a5.85807 5.85807 0 00.4348-1.396 3.28913 3.28913 0 00.3612 1.396h11.4573A1.28965 1.28965 0 00113.24914 270.20358zM75.33364 268.02058a1.79282 1.79282 0 00-.0604-1.6902c-.2505-.2764-.3095-1.6545-.3297-3.6479-.0092-.9119-1.563-1.7111-2.8673-.6045-.4232.3591-.7718.5661-1.0653.4519-.246-.0956-.3729-.626-.7123-.424a3.54976 3.54976 0 00-.8097 1.2786c-.3788.7845-.7509 1.5775-1.1262 2.366-.0831.1746-.1687.3576-.2402.5423l6.8112 2.39A2.25426 2.25426 0 0075.33364 268.02058z" class="color66bcd5 svgShape"/><path fill="#a2d1eb" d="M94.74394,181.573h16.9466a2.57956,2.57956,0,0,0,2.3242-1.8157l7.4565-26.6305a1.3301,1.3301,0,0,0-1.3073-1.8157h-16.9466a2.57933,2.57933,0,0,0-2.3241,1.8157l-7.4566,26.6305A1.3301,1.3301,0,0,0,94.74394,181.573Z" class="colora2d1eb svgShape"/><path fill="#3c79a6" d="M93.43664,179.75728l7.4565-26.6305a2.57956,2.57956,0,0,1,2.3242-1.8157h1.807a2.57943,2.57943,0,0,0-2.3241,1.8157l-7.4566,26.6305a1.33017,1.33017,0,0,0,1.3073,1.8157h-1.807A1.3301,1.3301,0,0,1,93.43664,179.75728Z" class="color3c79a6 svgShape"/><path fill="#f7b690" d="M95.858,173.67078a2.13035,2.13035,0,0,1,.5392,2.6609c-.4271.8919-14.8402,4.3863-18.3127,4.329-1.0566-.0174-2.2705-.1181-2.8922-.9726a3.04256,3.04256,0,0,1-.0999-2.7214,9.70552,9.70552,0,0,1,2.6045-4.2419C78.54594,172.00628,95.327,173.32628,95.858,173.67078Z" class="colorf7b690 svgShape"/><path fill="#f7b690" d="M101.05864 171.12118c.3474-.4832.6988-1.1483.3443-1.6263a.9813.9813 0 00-1.0768-.2622 3.15652 3.15652 0 00-.9912.6322 2.974 2.974 0 01-1.3926.7449 1.12289 1.12289 0 01-1.2679-.7187c-.1362-.5668.3063-1.2811-.111-1.688a.73859.73859 0 00-.8547-.0513 2.16307 2.16307 0 00-.6401.6476 12.36739 12.36739 0 00-2.346 4.2368 4.21123 4.21123 0 001.2917 4.4075 3.45827 3.45827 0 004.0552-.1833 4.28665 4.28665 0 001.4678-3.0706A5.92652 5.92652 0 01101.05864 171.12118zM118.024 169.76878c-.0624-.1821-.1637-3.0911-.3131-3.2123-.2734-.2218-1.2947 3.2013-1.0837 3.4831-.7396-.0787-.9609-.1023-1.7005-.181-.5379-.0572-1.2414-.0138-1.4044.502-.1302.412.1996.808.4285 1.1743.4071.6515-.1918 4.4532.1259 4.7757 1.1761 1.1937 3.7517-.8759 4.1809-2.0408A6.205 6.205 0 00118.024 169.76878z" class="colorf7b690 svgShape"/><polygon fill="#616d7d" points="187.055 204.024 177.656 204.024 172.956 193.37 182.355 193.37 187.055 204.024" class="color616d7d svgShape"/><polygon fill="#7590a2" points="185.998 204.024 176.599 204.024 171.9 193.37 181.299 193.37 185.998 204.024" class="color7590a2 svgShape"/><path fill="#758798" d="M187.813,202.63438H169.77173a.695.695,0,0,0-.695.695h0a.69507.69507,0,0,0,.695.6951H187.813a.69508.69508,0,0,0,.695-.6951h0A.695.695,0,0,0,187.813,202.63438Z" class="color758798 svgShape"/><path fill="#616d7d" d="M165.01033,196.98718a2.674,2.674,0,0,1-2.7044-3.1497l4.0805-28.8632a3.7562,3.7562,0,0,1,3.5954-3.15h22.4253a2.67409,2.67409,0,0,1,2.7044,3.1499l-4.0806,28.8633a3.756,3.756,0,0,1-3.595,3.1497Z" class="color616d7d svgShape"/><path fill="#758798" d="M163.29293,196.98718a2.67411,2.67411,0,0,1-2.7044-3.1497l4.08051-28.8632a3.75617,3.75617,0,0,1,3.59539-3.15h22.4253a2.6742,2.6742,0,0,1,2.7045,3.1499l-4.0807,28.8633a3.756,3.756,0,0,1-3.5949,3.1497Z" class="color758798 svgShape"/><path fill="#f7f6f0" d="M163.621,194.66728a1.54713,1.54713,0,0,1-1.56631-1.8242l3.7994-26.8746a2.17283,2.17283,0,0,1,2.0823-1.8243h22.4253a1.5471,1.5471,0,0,1,1.56631,1.8241l-3.79951,26.8748a2.17251,2.17251,0,0,1-2.082,1.8242Z" class="colorf7f6f0 svgShape"/><path fill="#bccace" d="M167.12483 170.53548h22.4855a.64333.64333 0 00.6373-.4987l.3199-2.0684a.44424.44424 0 00-.4831-.4986H167.599a.64337.64337 0 00-.63741.4986l-.3199 2.0684A.44431.44431 0 00167.12483 170.53548zM184.07283 188.65958h2.6985a.68472.68472 0 00.6783-.5308l2.4413-15.7851a.47288.47288 0 00-.5142-.5307h-2.6985a.68464.68464 0 00-.6783.5307l-2.4412 15.7851A.47283.47283 0 00184.07283 188.65958zM165.17813 183.76288h7.6925a.68464.68464 0 00.6783-.5307l1.684-10.8885a.47285.47285 0 00-.5141-.5307h-7.6926a.68464.68464 0 00-.6783.5307l-1.684 10.8885A.47288.47288 0 00165.17813 183.76288zM164.304 185.55938c.06589-.426.303-.7714.52949-.7714h8.0646c.2266 0 .3568.3454.29091.7714l-.89431 5.7823h-8.8849zM175.06543 180.15958c.0659-.4261.303-.7715.52961-.7715h3.07049c.2266 0 .3568.3454.2909.7715l-1.72939 11.1821h-3.89091zM183.19123 190.505c.0659-.4261.3029-.7715.5294-.7715h3.0707c.2265 0 .35671.3454.2908.7715l-.1294.8367h-3.8909zM180.18813 182.78358h2.6985a.68464.68464 0 00.6783-.5307l1.5325-9.9092a.47281.47281 0 00-.5141-.5307h-2.6985a.68464.68464 0 00-.6783.5307l-1.53249 9.9092A.47284.47284 0 00180.18813 182.78358zM180.24723 171.813l-.9007 5.8243c-.0659.4261-.303.7715-.52949.7715h-3.07061c-.2266 0-.3568-.3454-.2908-.7715l.9007-5.8243zM179.18233 184.53438c.0659-.426.3029-.7715.5295-.7715h3.0706c.2265 0 .3567.3455.2908.7715l-1.0528 6.8073h-3.8909z" class="colorbccace svgShape"/><polygon fill="#cc346f" points="186.97 176.189 188.776 176.189 189.301 172.792 187.495 172.792 186.97 176.189" class="colorcc346f svgShape"/><path fill="#f7f6f0" d="M185.70643,177.17578l-.0902.5832h2.9165l.0902-.5832Zm2.7473,1.094h-2.9165l-.09019.5833h2.91649Zm-.1692,1.0941H185.368l-.09021.5832h2.9165Zm-.1692,1.0941h-2.9165l-.0902.5831h2.9165Zm-.1692,1.094h-1.4248l-.0902.5832h1.4248Z" class="colorf7f6f0 svgShape"/><polygon fill="#fdd247" fill-rule="evenodd" points="182.176 176.189 183.982 176.189 184.507 172.792 182.702 172.792 182.176 176.189" class="colorfdd247 svgShape"/><path fill="#f7f6f0" d="M180.913,177.17578l-.09021.5832h2.9165l.0901-.5832Zm2.74729,1.094h-2.9166l-.0902.5833H183.57Zm-.16929,1.0941h-2.91641l-.0902.5832h2.9164Zm-.16911,1.0941h-2.9165l-.0902.5831h2.9165Zm-.1693,1.094h-1.4247l-.0902.5832h1.4247Z" class="colorf7f6f0 svgShape"/><polygon fill="#70a0fe" points="176.073 183.764 177.878 183.764 178.404 180.367 176.598 180.367 176.073 183.764" class="color70a0fe svgShape"/><path fill="#f7f6f0" d="M174.80913 184.75088l-.09009.5832h2.91639l.0902-.5832zm2.7474 1.094H174.64l-.09021.5833h2.9165zm-.1693 1.0941h-2.9165l-.0902.5832H177.297zm-.1691 1.0941h-2.9165l-.0902.5831h2.9165zm-.1692 1.094H175.624l-.09011.5832h1.4248zM176.728 172.34348l-.09021.5832h2.9165l.0902-.5832zm2.74729 1.094h-2.9165l-.0902.5833h2.9165zm-.1692 1.0941h-1.3545l-.0902.5832h1.3545z" class="colorf7f6f0 svgShape"/><polygon fill="#66bcd5" fill-rule="evenodd" points="166.415 176.189 174.094 176.189 174.619 172.792 166.94 172.792 166.415 176.189" class="color66bcd5 svgShape"/><path fill="#f7f6f0" d="M166.26253,177.17578l-.0902.5832h7.6789l.0902-.5832Zm7.5096,1.094h-4.5548l-.0902.5833h4.5548Z" class="colorf7f6f0 svgShape"/><polygon fill="#818bea" fill-rule="evenodd" points="180.321 188.184 182.127 188.184 182.652 184.788 180.846 184.788 180.321 188.184" class="color818bea svgShape"/><path fill="#f7f6f0" d="M179.05783,189.17138l-.0902.5832h2.9165l.0902-.5832Zm2.7473,1.0941h-1.8752l-.0902.5832h1.8752Z" class="colorf7f6f0 svgShape"/><polygon fill="#66bcd5" fill-rule="evenodd" points="185.365 186.565 187.171 186.565 187.696 183.169 185.89 183.169 185.365 186.565" class="color66bcd5 svgShape"/><path fill="#f7f6f0" d="M184.10163,187.55228l-.0902.5831h2.9165l.0902-.5831Z" class="colorf7f6f0 svgShape"/><polygon fill="#616d7d" points="276.163 204.024 285.562 204.024 290.262 193.37 280.863 193.37 276.163 204.024" class="color616d7d svgShape"/><polygon fill="#7590a2" points="277.22 204.024 286.619 204.024 291.318 193.37 281.919 193.37 277.22 204.024" class="color7590a2 svgShape"/><path fill="#758798" d="M275.40463,202.63438h18.0413a.695.695,0,0,1,.695.695h0a.69507.69507,0,0,1-.695.6951h-18.0413a.69507.69507,0,0,1-.695-.6951h0A.695.695,0,0,1,275.40463,202.63438Z" class="color758798 svgShape"/><path fill="#616d7d" d="M303.104,196.98718a2.6741,2.6741,0,0,0,2.70439-3.1497l-4.0805-28.8632a3.75619,3.75619,0,0,0-3.5954-3.15h-37.1153a2.67409,2.67409,0,0,0-2.7044,3.1499l4.0806,28.8633a3.756,3.756,0,0,0,3.595,3.1497Z" class="color616d7d svgShape"/><path fill="#758798" d="M304.82143,196.98718a2.6741,2.6741,0,0,0,2.7044-3.1497l-4.0806-28.8632a3.75619,3.75619,0,0,0-3.5954-3.15h-37.1152a2.67409,2.67409,0,0,0-2.7044,3.1499l4.0806,28.8633a3.756,3.756,0,0,0,3.5949,3.1497Z" class="color758798 svgShape"/><path fill="#f7f6f0" d="M304.49333,194.66728a1.54705,1.54705,0,0,0,1.5662-1.8242l-3.7994-26.8746a2.17264,2.17264,0,0,0-2.0822-1.8243h-37.1152a1.54709,1.54709,0,0,0-1.5663,1.8241l3.7994,26.8748a2.17261,2.17261,0,0,0,2.0821,1.8242Z" class="colorf7f6f0 svgShape"/><path fill="#bccace" d="M263.89173 170.53548h37.22a.57141.57141 0 00.5784-.6756l-.2466-1.7145a.80741.80741 0 00-.7729-.6756h-37.22a.57136.57136 0 00-.5784.6756l.2467 1.7145A.80705.80705 0 00263.89173 170.53548zM298.75653 188.65958H303.676a.60813.60813 0 00.61559-.7191l-2.217-15.4084a.85912.85912 0 00-.8225-.7191h-4.9196a.60818.60818 0 00-.6156.7191l2.217 15.4084A.85922.85922 0 00298.75653 188.65958zM265.94113 183.76288h13.0797a.60814.60814 0 00.6156-.719l-1.5125-10.5118a.859.859 0 00-.8225-.7191h-13.0797a.60806.60806 0 00-.6155.7191l1.5124 10.5118A.859.859 0 00265.94113 183.76288zM265.48063 185.55948a.61559.61559 0 01.5592-.7715h13.1773a.86817.86817 0 01.7812.7715l.832 5.7822h-14.5178zM280.92293 180.15958a.61565.61565 0 01.5592-.7715h5.0173a.86826.86826 0 01.7812.7715l1.6089 11.1821h-6.3577zM298.303 190.505a.61544.61544 0 01.55909-.7714h5.0173a.86816.86816 0 01.7812.7714l.12041.8367h-6.35771zM290.07873 182.78358h4.9196a.60817.60817 0 00.6156-.7191l-1.3716-9.5324a.859.859 0 00-.8225-.7191h-4.9196a.60818.60818 0 00-.6156.7191l1.3716 9.5324A.859.859 0 00290.07873 182.78358zM286.07973 171.813l.838 5.8243a.61564.61564 0 01-.5592.7715h-5.0173a.86817.86817 0 01-.78119-.7715l-.838-5.8243zM289.38473 184.53438a.61568.61568 0 01.5592-.7715h5.0172a.86844.86844 0 01.7813.7715l.9794 6.8073h-6.3577z" class="colorbccace svgShape"/><polygon fill="#cc346f" points="298.799 176.189 301.75 176.189 301.261 172.792 298.311 172.792 298.799 176.189" class="colorcc346f svgShape"/><path fill="#f7f6f0" d="M297.12653,177.17578l.084.5832h4.7654l-.08389-.5832Zm4.9229,1.094H297.284l.08379.5833h4.7655Zm.1574,1.0941h-4.7655l.084.5832h4.7654Zm.1574,1.0941h-4.7654l.0839.5831h4.7655Zm.1575,1.094h-2.3281l.0839.5832h2.3281Z" class="colorf7f6f0 svgShape"/><polygon fill="#fdd247" fill-rule="evenodd" points="290.967 176.189 293.918 176.189 293.429 172.792 290.478 172.792 290.967 176.189" class="colorfdd247 svgShape"/><path fill="#f7f6f0" d="M289.29423,177.17578l.0839.5832h4.7655l-.0839-.5832Zm4.9229,1.094h-4.7655l.084.5833H294.301Zm.1574,1.0941h-4.7654l.0838.5832h4.7655Zm.1574,1.0941h-4.7655l.084.5831h4.7654Zm.1574,1.094h-2.328l.0839.5832h2.3281Z" class="colorf7f6f0 svgShape"/><polygon fill="#70a0fe" points="283.998 183.764 286.948 183.764 286.46 180.367 283.509 180.367 283.998 183.764" class="color70a0fe svgShape"/><path fill="#f7f6f0" d="M282.325 184.75088l.08389.5832h4.7655l-.084-.5832zm4.92289 1.094h-4.7656l.084.5833h4.7654zm.1573 1.0941h-4.7654l.0839.5832h4.7655zm.1575 1.0941h-4.7655l.0839.5831h4.7655zm.1574 1.094H285.392l.08389.5832H287.804zM280.53973 172.34348l.084.5832h4.7654l-.0839-.5832zm4.9229 1.094h-4.7654l.0839.5833h4.7655zm.1575 1.0941h-2.2132l.0839.5832h2.2131z" class="colorf7f6f0 svgShape"/><polygon fill="#70a0fe" points="265.214 176.189 277.761 176.189 277.272 172.792 264.725 172.792 265.214 176.189" class="color70a0fe svgShape"/><path fill="#f7f6f0" d="M265.35573,177.17578l.084.5832h12.547l-.0838-.5832Zm12.7045,1.094h-7.4425l.084.5833h7.4425Z" class="colorf7f6f0 svgShape"/><polygon fill="#818bea" fill-rule="evenodd" points="292.693 188.184 295.644 188.184 295.155 184.788 292.204 184.788 292.693 188.184" class="color818bea svgShape"/><path fill="#f7f6f0" d="M291.02023,189.17148l.0839.5832h4.7655l-.084-.5832Zm4.9229,1.094h-3.064l.08391.5832h3.06389Z" class="colorf7f6f0 svgShape"/><polygon fill="#66bcd5" fill-rule="evenodd" points="300.292 186.565 303.243 186.565 302.754 183.169 299.804 183.169 300.292 186.565" class="color66bcd5 svgShape"/><path fill="#f7f6f0" d="M298.61953,187.55228l.0839.5832h4.7655l-.08389-.5832Z" class="colorf7f6f0 svgShape"/><polygon fill="#616d7d" points="222.035 204.024 231.434 204.024 231.659 193.37 222.26 193.37 222.035 204.024" class="color616d7d svgShape"/><polygon fill="#7590a2" points="222.308 204.024 231.707 204.024 231.932 193.37 222.533 193.37 222.308 204.024" class="color7590a2 svgShape"/><path fill="#758798" d="M217.96263,202.63438h18.0413a.695.695,0,0,1,.695.695h0a.695.695,0,0,1-.695.6951h-18.0413a.69507.69507,0,0,1-.695-.6951h0A.695.695,0,0,1,217.96263,202.63438Z" class="color758798 svgShape"/><path fill="#616d7d" d="M248.94833,196.98718a3.13666,3.13666,0,0,0,3.144-3.13l-.0528-28.6819a3.15063,3.15063,0,0,0-3.1558-3.1302h-44.9499a3.13647,3.13647,0,0,0-3.1439,3.1301l.0527,28.682a3.15059,3.15059,0,0,0,3.1555,3.13Z" class="color616d7d svgShape"/><path fill="#758798" d="M249.49053,196.98718a3.1366,3.1366,0,0,0,3.144-3.13l-.0528-28.6819a3.15063,3.15063,0,0,0-3.1558-3.1302H204.476a3.13647,3.13647,0,0,0-3.14391,3.1301l.0527,28.682a3.1506,3.1506,0,0,0,3.1555,3.13Z" class="color758798 svgShape"/><path fill="#f7f6f0" d="M249.48623,194.68188a1.81443,1.81443,0,0,0,1.82081-1.8127l-.04921-26.706a1.82257,1.82257,0,0,0-1.8276-1.8128h-44.9499a1.81448,1.81448,0,0,0-1.8208,1.8127l.0491,26.7061a1.82262,1.82262,0,0,0,1.8276,1.8127Z" class="colorf7f6f0 svgShape"/><path fill="#bccace" d="M206.02233,168.06978h41.9218a1.2392,1.2392,0,0,1,1.2392,1.2392v.5873a1.2392,1.2392,0,0,1-1.2392,1.2392h-41.9217a1.2392,1.2392,0,0,1-1.2392-1.2392v-.5874a1.2391,1.2391,0,0,1,1.2391-1.2391Z" transform="rotate(180 226.983 169.603)" class="colorbccace svgShape"/><path fill="#bccace" d="M243.44043,172.41308h4.1673a1.5756,1.5756,0,0,1,1.5756,1.5756v13.6954a1.5755,1.5755,0,0,1-1.5755,1.5755h-4.1674a1.5755,1.5755,0,0,1-1.5755-1.5755v-13.6955A1.5755,1.5755,0,0,1,243.44043,172.41308Z" transform="rotate(180 245.524 180.836)" class="colorbccace svgShape"/><rect width="16.712" height="11.95" x="204.902" y="172.413" fill="#bccace" rx="1.575" transform="rotate(180 213.257 178.388)" class="colorbccace svgShape"/><path fill="#bccace" d="M204.90163 186.15948a.77147.77147 0 01.77141-.7715h15.16869a.77142.77142 0 01.7715.7715v5.7823h-16.7116zM223.57193 180.75958a.77146.77146 0 01.7715-.7714h5.7754a.77146.77146 0 01.7715.7714v11.1822h-7.3184zM241.86493 191.10508a.77148.77148 0 01.7715-.7715h5.7754a.77148.77148 0 01.7715.7715v.8367h-7.3184z" class="colorbccace svgShape"/><path fill="#bccace" d="M234.42443,172.41308h4.1675a1.5755,1.5755,0,0,1,1.5755,1.5755v7.8195a1.5755,1.5755,0,0,1-1.5755,1.5755h-4.1674a1.5756,1.5756,0,0,1-1.5756-1.5756v-7.8194A1.5755,1.5755,0,0,1,234.42443,172.41308Z" transform="rotate(180 236.508 177.898)" class="colorbccace svgShape"/><path fill="#bccace" d="M230.89033 172.41308v5.8243a.77146.77146 0 01-.7715.7714h-5.7754a.77146.77146 0 01-.7715-.7714v-5.8243zM232.58783 185.13448a.77148.77148 0 01.7715-.7715h5.7755a.77146.77146 0 01.7714.7715v6.8073h-7.3184z" class="colorbccace svgShape"/><rect width="3.397" height="3.397" x="244.808" y="173.392" fill="#818bea" transform="rotate(180 246.506 175.09)" class="color818bea svgShape"/><path fill="#f7f6f0" d="M242.71843,177.77588v.5832H248.204v-.5832Zm5.48561,1.094h-5.48561v.5832H248.204Zm0,1.094h-5.48561v.5833H248.204Zm0,1.0941h-5.48561v.5832H248.204Zm0,1.094h-2.67991v.5832H248.204Z" class="colorf7f6f0 svgShape"/><rect width="3.397" height="3.397" x="235.792" y="173.392" fill="#fdd247" transform="rotate(180 237.49 175.09)" class="colorfdd247 svgShape"/><path fill="#f7f6f0" d="M233.70243,177.77588v.5832H239.188v-.5832Zm5.48561,1.094h-5.48561v.5832H239.188Zm0,1.094h-5.48561v.5833H239.188Zm0,1.0941h-5.48561v.5832H239.188Zm0,1.094h-2.67981v.5832H239.188Z" class="colorf7f6f0 svgShape"/><rect width="3.397" height="3.397" x="226.515" y="180.967" fill="#70a0fe" transform="rotate(180 228.213 182.666)" class="color70a0fe svgShape"/><path fill="#f7f6f0" d="M224.42543 185.351v.5832H229.911v-.5832zm5.48561 1.094h-5.48561v.5832H229.911zm0 1.094h-5.48561v.5833H229.911zm0 1.0941h-5.48561v.5832H229.911zm0 1.094h-2.67991v.5832H229.911zM224.42543 172.94358v.5832H229.911v-.5832zm5.48561 1.094h-5.48561v.5832H229.911zm0 1.094h-2.54771v.5833H229.911z" class="colorf7f6f0 svgShape"/><rect width="14.443" height="3.397" x="206.146" y="173.392" fill="#cc346f" transform="rotate(180 213.368 175.09)" class="colorcc346f svgShape"/><path fill="#f7f6f0" d="M206.14643,177.77588v.5832h14.4432v-.5832Zm14.4432,1.094h-8.5672v.5832h8.5672Z" class="colorf7f6f0 svgShape"/><rect width="3.397" height="3.397" x="235.792" y="185.388" fill="#818bea" transform="rotate(180 237.49 187.086)" class="color818bea svgShape"/><path fill="#f7f6f0" d="M233.70243,189.77148v.5832H239.188v-.5832Zm5.48561,1.094h-3.52691v.5833H239.188Z" class="colorf7f6f0 svgShape"/><rect width="3.397" height="3.397" x="244.808" y="183.769" fill="#66bcd5" transform="rotate(180 246.506 185.467)" class="color66bcd5 svgShape"/><path fill="#f7f6f0" d="M242.71843,188.15228v.5832H248.204v-.5832Z" class="colorf7f6f0 svgShape"/><path fill="#f4a086" d="M314.61653,180.30288a56.18252,56.18252,0,0,1-4.4989,12.2723c-.5344,1.0555-1.3011,2.228-2.4822,2.2952-1.3645.0776-2.4985-1.3081-2.7277-2.6555-.6276-3.6907.297-9.6094,1.307-14.6223Z" class="colorf4a086 svgShape"/><path fill="#d97b6b" fill-rule="evenodd" d="M305.80073,175.73768c.64931-3.0788,1.6605-10.9578,5.7978-11.307,4.8409-.4087,4.9323,6.6885,4.56951,9.7717a55.93646,55.93646,0,0,1-1.15981,6.4922l-9.5926-3.0944Q305.60418,176.66433,305.80073,175.73768Z" class="colord97b6b svgShape"/><path fill="#f7b690" d="M293.48713,176.00228c-.7365-.442-1.65609-.8916-2.407-.4747-1.1077.6149-.6627,2.2963-.0322,3.3951a47.49162,47.49162,0,0,0,13.234,14.7194c2.9777,2.164,4.3817,1.7108,5.9528-1.6053C311.96573,188.38338,298.078,178.757,293.48713,176.00228Z" class="colorf7b690 svgShape"/><path fill="#f7b690" d="M291.91743,172.98108c-1.9001-1.5102-4.5531-1.5013-6.9789-1.4214-.1327.3059.129.6524.4321.7914s.6506.1561.9548.2927a2.331,2.331,0,0,1,1.0201,2.2596,4.9742,4.9742,0,0,0,.295,2.5756,2.798,2.798,0,0,0,2.2752,1.2026c1.0829.0775,3.78331-.4482,4.0698-1.7932C294.24933,175.65058,292.805,173.68648,291.91743,172.98108Z" class="colorf7b690 svgShape"/><path fill="#f4a086" d="M290.84193,177.83668a4.30647,4.30647,0,0,1-1.6723-.3326c-.46-.1937-.7024-.5147-.6479-.8583.0794-.4954.6566-.5966.9664-.6508a2.95989,2.95989,0,0,0,2.2293-1.8521.2449.2449,0,1,1,.4591.1707,3.4591,3.4591,0,0,1-2.6042,2.1639c-.1894.0332-.5428.0949-.5667.2455-.01859.1162.1707.2527.35441.33a3.907,3.907,0,0,0,3.45059-.2334.24484.24484,0,1,1,.2496.4213A4.375,4.375,0,0,1,290.84193,177.83668Z" class="colorf4a086 svgShape"/><path fill="#a0b5bf" d="M320.75343,189.99548c1.0591-2.5691,12.2361.5286,14.1257,4.8229a7.72367,7.72367,0,0,1,2.7553,3.5676,13.184,13.184,0,0,1,.2024,6.6593q-1.75469,11.4879-4.5235,22.5947a3.24744,3.24744,0,0,1-.6539,1.4953c-.9486.996-2.5213.5786-3.89039-.3405a2.05132,2.05132,0,0,1-.28961.1187c-.8855.2768-3.75939-1.4778-4.3886-2.1822S319.90093,192.06318,320.75343,189.99548Z" class="colora0b5bf svgShape"/><path fill="#f4a086" d="M333.63073,257.00688a9.43026,9.43026,0,0,1-4.1112-.3265q-.27255-2.39115-.5452-4.7822a1.12135,1.12135,0,0,1,.0339-.5829.88447.88447,0,0,1,.6961-.3986c1.0719-.1949,2.7423-.2557,3.016,1.1275C333.04743,253.69708,333.326,255.35338,333.63073,257.00688Z" class="colorf4a086 svgShape"/><path fill="#a0b5bf" d="M323.47813 221.56848c.9206-2.8222 4.5962-4.7565 7.8486.1391 4.9604 7.4663.4912 21.4321 1.9022 30.4484h-4.6304C328.20883 251.28328 322.96743 223.13408 323.47813 221.56848zM344.72523 198.26528a6.34774 6.34774 0 01-4.0161 1.0239c-11.5095 0-18.1696-3.7431-16.5778-9.03 1.6351-5.4308 11.9352-4.5541 17.3153-2.8041 1.1597.3772 2.8496.7425 3.6419 1.8254C346.23693 190.85008 347.46413 196.10778 344.72523 198.26528z" class="colora0b5bf svgShape"/><path fill="#a0b5bf" d="M346.909 194.43178c-1.63261-7.6749-15.40141-5.7763-16.99321 1.8415-.8199 3.9238.219 7.9891 1.5399 11.7738a78.69178 78.69178 0 003.8267 9.0871 94.26133 94.26133 0 004.4538 8.5942c.1779.2754 7-.093 7.2496-1.5507a86.34948 86.34948 0 001.1586-10.9817A76.4948 76.4948 0 00346.909 194.43178zM320.42663 259.34888a1.44889 1.44889 0 011.2163-1.3656 9.01487 9.01487 0 011.9888-.0446 5.37017 5.37017 0 004.6099-2.8455 1.35677 1.35677 0 01.4629-.6153.89255.89255 0 01.9638.1769c.2684.2204.458.5211.7033.767a2.36233 2.36233 0 001.6878.6757c.5204-.0077 1.103-.4052 1.603-.1424.4413.2318.5601.843.672 1.2786.19261.7506.3673 1.5063.551 2.2591a3.14349 3.14349 0 01.0928.5127h-3.6147a5.079 5.079 0 01-.3772-1.2105 2.85261 2.85261 0 01-.3131 1.2105h-9.9348A1.11824 1.11824 0 01320.42663 259.34888z" class="colora0b5bf svgShape"/><path fill="#f4a086" d="M360.66073,255.065a9.06106,9.06106,0,0,1-3.8773,1.2319q-.7779-2.265-1.5557-4.5302a1.20355,1.20355,0,0,1-.09669-.5902,1.08344,1.08344,0,0,1,.55669-.6582c.9494-.5986,2.4822-1.2908,3.0396-.0244C359.39333,252.00728,360.01533,253.54238,360.66073,255.065Z" class="colorf4a086 svgShape"/><path fill="#a0b5bf" d="M339.64653 225.36978c-.0537-3.021 3.1071-6.7179 7.3099-2.8375 6.767 6.2478 9.2818 18.6905 12.2611 27.8821l-4.2862 1.7519C354.29043 251.48538 339.67643 227.04888 339.64653 225.36978zM356.12343 259.44958a1.5548 1.5548 0 01-.0218-1.4664 8.96654 8.96654 0 00.1258-3.1736c-.0319-.7901 1.27861-1.5502 2.45661-.6491.38229.2925.69319.4565.94229.3448.2089-.0937.2956-.5585.5984-.3984a3.07761 3.07761 0 01.7571 1.0718c.3624.6628.7194 1.3332 1.079 1.9995.0796.1476.1617.3024.2318.4592l-5.7939 2.3681A1.95275 1.95275 0 01356.12343 259.44958z" class="colora0b5bf svgShape"/><path fill="#eb8674" fill-rule="evenodd" d="M320.42273,196.20368a28.38051,28.38051,0,0,0-8.7279-21.4514c-1.9162-1.9306-4.23979-4.1906-3.739-6.8641.4255-2.2711,2.7256-3.6256,4.8337-4.5715a74.53783,74.53783,0,0,1,11.275-3.9345c2.31-.6187,8.2402-3.8971,10.6418-3.2673,6.4675,1.6962,5.4886,13.6079,7.275,19.02,1.4356,4.3486,4.8359,17.9879,4.7923,18.3068l-25.5743,8.0679C319.78513,200.53818,320.37763,198.41038,320.42273,196.20368Z" class="coloreb8674 svgShape"/><path fill="#f4a086" d="M315.75143,156.22368c1.08-2.9304,3.9067-4.2079,5.456-3.9198.5614,4.8922.6544,5.1869,3.0822,7.3683.7165,2.6119-6.3637,5.1436-7.4755,4.1219C316.80253,163.39438,315.19293,157.739,315.75143,156.22368Z" class="colorf4a086 svgShape"/><path fill="#222b56" fill-rule="evenodd" d="M312.08323,149.81688a2.52765,2.52765,0,0,0-.7536,1.6751,2.772,2.772,0,0,0,.56741,1.3092q.51493.78,1.03,1.56a7.22305,7.22305,0,0,0,.45209-2.323,3.94029,3.94029,0,0,1,.7613-2.2135c.3222-.3712.7988-.701.7999-1.1925a.70368.70368,0,0,0-1.22229-.4636A15.37206,15.37206,0,0,0,312.08323,149.81688Z" class="color222b56 svgShape"/><path fill="#f7b690" d="M319.78023,149.14528a4.07173,4.07173,0,0,0-6.7871,1.0575c-1.1663,2.555.2668,7.8789,1.3384,8.9724,1.874,1.9122,5.72751-.3917,6.2428-1.8619C321.32913,155.15988,321.337,150.99878,319.78023,149.14528Z" class="colorf7b690 svgShape"/><path fill="#222b56" fill-rule="evenodd" d="M318.84253,149.89488a33.70918,33.70918,0,0,0,1.1088,5.7421c.5271-.23,1.1748-1.7628,2.1794-1.7245.3212.0122.7669.2121.7672-.4305.0015-4.0703.1657-3.8659-.5663-4.2253C320.71793,148.46468,319.02893,149.16388,318.84253,149.89488Z" class="color222b56 svgShape"/><path fill="#f7b690" d="M323.00233,153.27388a2.57521,2.57521,0,0,1-.5249,1.8568c-1.1637,1.486-2.3971-.4698-2.1442-1.7071C320.63473,151.94868,322.79933,151.491,323.00233,153.27388Z" class="colorf7b690 svgShape"/><path fill="#222b56" fill-rule="evenodd" d="M313.90543,150.54408c.0985.3552.3072.7455.6722.797.3809.0538,3.853-2.8515,4.0738-2.8779s-.0323,1.4839.2129,1.646c.2099.1386.48771.034.7201-.0619a7.59244,7.59244,0,0,1,3.2568-.3362,2.046,2.046,0,0,0-.1966-1.1842,3.11213,3.11213,0,0,0-.655-.7364,5.88029,5.88029,0,0,0-3.9573-1.6293,7.15169,7.15169,0,0,0-2.5247.6197C312.42193,148.09128,313.75543,150.00368,313.90543,150.54408Z" class="color222b56 svgShape"/><path fill="#f7b690" d="M330.97563,172.69178l8.9122.8307a81.08094,81.08094,0,0,1-.8609,11.7709l-7.4435-.7453C331.51383,180.61578,331.30333,176.70748,330.97563,172.69178Z" class="colorf7b690 svgShape"/><path fill="#eb8674" fill-rule="evenodd" d="M330.25113,166.79078c-.3717-3.3973-3.0063-8.3945.7668-10.0139,3.4795-1.4934,6.7144.8394,7.4187,4.1366a68.78454,68.78454,0,0,1,1.4513,14.2287l-9.7251-.4012C329.96233,172.28438,330.53213,169.35838,330.25113,166.79078Z" class="coloreb8674 svgShape"/><path fill="#f7b690" d="M331.54413,182.83668l7.4828,2.4567c-.4028.8416-7.7092,13.1151-11.3887,17.4647-.6136.7254-1.615,1.5014-2.4005.967a1.82222,1.82222,0,0,1-.3759-2.1757A163.58958,163.58958,0,0,0,331.54413,182.83668Z" class="colorf7b690 svgShape"/><path fill="#222b56" fill-rule="evenodd" d="M322.74763,150.01518a.98183.98183,0,0,1,.814.6158,2.581,2.581,0,0,0-.9919-2.2626c.4332.0574.76331-.4686.6697-.8955a1.70481,1.70481,0,0,0-.8242-.9753,6.27438,6.27438,0,0,0-4.108-.9568l-.0801-.551a4.448,4.448,0,0,0-2.2755,1.2973l-.0787-.4863q-.939.571-1.8781,1.1419a.19574.19574,0,0,0-.10979-.3239,6.36307,6.36307,0,0,0-2.37641,4.3502,7.41389,7.41389,0,0,1,2.7802-2.0172c1.5973-.6618,3.4096-.7567,4.9245-1.5901a1.4045,1.4045,0,0,0,1.5181,1.635q-.223-.2262-.4461-.4524Z" class="color222b56 svgShape"/><path fill="#f7b690" d="M323.16733,199.79348a3.47851,3.47851,0,0,0-1.6045,1.1191q-1.00169,1.03245-2.0033,2.0649c-.2684.2766-.5579.6588-.3958,1.0086a.66712.66712,0,0,0,.90431.2117,1.93715,1.93715,0,0,0,.678-.7711,1.16469,1.16469,0,0,0,1.173.9903q.39029-.4257.78039-.8516a2.48,2.48,0,0,0,2.2195.5261c1.2864-.1193,2.88-.5325,1.9539-2.0209C326.19823,200.98648,324.55693,199.47608,323.16733,199.79348Z" class="colorf7b690 svgShape"/><rect width="1.469" height="53.184" x="318.209" y="206.945" fill="#d0d9df" transform="rotate(-5.283 318.943 233.537)" class="colord0d9df svgShape"/><rect width="53.184" height="1.469" x="147.062" y="232.802" fill="#d0d9df" transform="rotate(-84.71 173.654 233.537)" class="colord0d9df svgShape"/><path fill="#6370c7" d="M362.34913,188.47748l-.002.0245a1.94285,1.94285,0,0,0-2.2433,1.7484l-3.3192,34.8864a1.38178,1.38178,0,0,1-1.3814,1.2582h-20.9944a1.95855,1.95855,0,0,0,0,3.9171h20.9943a5.29323,5.29323,0,0,0,4.0268-1.8589c1.1547.0858,5.6275.4689,5.6275.4689l4.5834-1.4583,4.1645-38.9863Z" class="color6370c7 svgShape"/><path fill="#828feb" d="M367.15513,226.395a1.38164,1.38164,0,0,0,1.3814-1.2582l3.3192-34.8864a1.95833,1.95833,0,0,1,1.9496-1.7729h0a1.95844,1.95844,0,0,1,1.9496,2.1439l-3.3182,34.8805a5.30478,5.30478,0,0,1-5.28169,4.8102H346.16083a1.95861,1.95861,0,0,1-1.9586-1.9586h0a1.95858,1.95858,0,0,1,1.9586-1.9585Z" class="color828feb svgShape"/><rect width="3.185" height="29.603" x="352.088" y="230.312" fill="#9797c2" transform="rotate(180 353.68 245.114)" class="color9797c2 svgShape"/><path fill="#4b4b6d" d="M354.66213,246.97248h.6102a0,0,0,0,1,0,0V269.673a0,0,0,0,1,0,0h-.6102a2.5747,2.5747,0,0,1-2.5747-2.5747v-17.5511A2.5747,2.5747,0,0,1,354.66213,246.97248Z" transform="rotate(90 353.68 258.323)" class="color4b4b6d svgShape"/><path fill="#4b4b6d" d="M352.22623,233.35818h2.9073a2.91735,2.91735,0,0,0,2.4538-1.3394l1.0974-1.7067h-10.0096l1.0974,1.7067A2.91719,2.91719,0,0,0,352.22623,233.35818Z" class="color4b4b6d svgShape"/><path fill="#f4a086" d="M325.93813,201.42778c1.5395-.7257,10.3647-1.9586,11.92491-2.6385,2.14969-.9367,3.77879-3.462,4.83479-5.5557a38.57133,38.57133,0,0,0,1.5133-3.5794l6.5955,3.4851a38.90139,38.90139,0,0,1-2.9799,4.3932,19.70975,19.70975,0,0,1-6.0163,5.4128c-2.4985,1.3348-12.837,1.4965-15.635,1.0546C323.92083,203.53228,324.39873,202.15348,325.93813,201.42778Z" class="colorf4a086 svgShape"/><path fill="#858bed" d="M348.866,182.49458c1.74139-.9429,5.31469-.7431,5.48729,1.7652.1016,1.4766-.7462,3.0888-1.3078,4.4158a39.0889,39.0889,0,0,1-2.1496,4.3152c-.029.05-.0602.0986-.0893.1485l-7.26759-3.0309C345.13573,188.097,346.632,183.70408,348.866,182.49458Z" class="color858bed svgShape"/><path fill="#f4a086" d="M319.59693 200.87518a3.06729 3.06729 0 00-1.02889 2.0851c-.01731.7954.63149 2.3894 1.22249 1.8568.4883-.44.6104-1.176 1.2674-1.1562a5.70616 5.70616 0 011.8566.6254c1.8028.7162 7.2634-.2552 4.9401-3.1102C326.075 198.98928 321.53963 199.02468 319.59693 200.87518zM307.52493 254.92908c-.3728.5596-.87089 1.1842-1.5416 1.1684-1.1578-.0274-1.2421-1.6796-.9522-2.7922q.4692-1.8.9383-3.5999l3.6364 1.0628A15.17754 15.17754 0 01307.52493 254.92908z" class="colorf4a086 svgShape"/><path fill="#0a3c5f" fill-rule="evenodd" d="M316.69423,220.18188c2.926-3.2321,21.2175-7.2497,29.8196-9.8814,6.4238-1.9651,13.03421-3.0702,14.0124,5.6058a10.10946,10.10946,0,0,1-4.689,9.5558c-3.492,2.1445-7.8818,1.9435-11.9707,1.6728l-20.3723-1.3487c-.7455,10.2023-9.4157,13.8546-13.2974,25.1547l-5.8316-1.189C307.90083,244.43158,315.24053,222.04468,316.69423,220.18188Z" class="color0a3c5f svgShape"/><path fill="#f7b690" d="M347.50073,249.65938a2.06938,2.06938,0,0,1,.2412,1.9192c-.6025.9892-2.0756.2361-2.8941-.5713l-2.6487-2.6124,3.5685-2.1318C346.356,247.38938,346.93673,248.51988,347.50073,249.65938Z" class="colorf7b690 svgShape"/><path fill="#0a3c5f" fill-rule="evenodd" d="M361.98293,225.46218c-3.49189,2.1444-7.8818,1.9434-11.9707,1.6727q-12.109-.8016-24.21819-1.6033c-1.28861-.0853-2.73471-.2492-3.53841-1.26-.93859-1.1805-.4843-3.0254.5843-4.0897a9.36458,9.36458,0,0,1,4.0143-1.9829q12.90272-3.9492,25.8053-7.8984c6.4238-1.9652,13.0342-3.0703,14.0124,5.6058A10.10965,10.10965,0,0,1,361.98293,225.46218Z" class="color0a3c5f svgShape"/><path fill="#0a3c5f" fill-rule="evenodd" d="M321.77943,222.40668c1.7785-5.5059,12.8704,5.3619,14.8071,8.2868a174.85354,174.85354,0,0,1,9.1811,15.5696l-4.3302,3.5445c-2.8401-5.722-8.5045-10.5521-13.1376-15.1218a18.53563,18.53563,0,0,1-4.0062-4.997C323.364,227.73868,321.46223,223.38878,321.77943,222.40668Z" class="color0a3c5f svgShape"/><path fill="#979dfe" d="M361.81083,188.99748c-.4401,3.2853-1.7021,6.4708-1.6489,9.785a12.59713,12.59713,0,0,0,3.9189,8.8655c1.4906,1.401,3.53721,2.9916,3.0034,4.9664-.4801,1.7765-2.7013,2.3026-4.5297,2.5104-3.987.453-8.536.7332-11.4689-2.0052-1.7961-1.6769-2.5732-4.1565-3.1448-6.5463a66.25438,66.25438,0,0,1-1.7693-12.9167c-.1389-3.7044.10851-7.6535,2.2379-10.6879,2.12161-3.0233,4.5028-5.028,7.9745-3.9622C360.33173,182.87908,362.24733,185.73938,361.81083,188.99748Z" class="color979dfe svgShape"/><path fill="#222b54" fill-rule="evenodd" d="M309.17133,252.40238c-.2261.3963-1.2697.5816-1.6999.5988-.3399.0136-1.8965-.6957-2.2329-.5796-.2422.0836-1.1453,3.3326-2.2667,4.0217a26.58591,26.58591,0,0,1-3.5579,1.5817,3.88944,3.88944,0,0,0-1.17289.6996,1.41089,1.41089,0,0,0-.498,1.1799.65459.65459,0,0,0,.03479.101h7.3358c.2132-.2502.4053-.5219.592-.7892q1.00635-1.4406,2.0128-2.8811c.2114,1.0492.3942,2.2797.5971,3.6703h.8193C309.39643,258.88688,310.11973,253.56448,309.17133,252.40238Z" class="color222b54 svgShape"/><path fill="#0a3c5f" fill-rule="evenodd" d="M350.27693,253.299a7.94993,7.94993,0,0,0-.9887-2.2751,3.96582,3.96582,0,0,0-1.79819-1.5715c-.00481.4277-.18841,1.0781-.57981,1.2506a20.31227,20.31227,0,0,0-2.3786.3129c-.17.1507.5552,2.9138.0937,4.1018,0,0-1.6549,1.2528-2.5086,1.855a3.12433,3.12433,0,0,0-.9146.8788,1.23206,1.23206,0,0,0-.0865,1.2154.77082.77082,0,0,0,.0688.0901l6.307-1.1558.85961-.3382a8.23329,8.23329,0,0,0,.14139-.9038q.18885-1.62225.3778-3.2446a12.55018,12.55018,0,0,1,1.6554,3.2929l.7625-.2999Q350.78263,254.90318,350.27693,253.299Z" class="color0a3c5f svgShape"/><path fill="#f7b690" d="M330.13833,201.036c1.5395-.7256,10.3646-1.5668,11.9249-2.2467,2.1497-.9367,3.7787-3.462,4.83481-5.5557a38.60116,38.60116,0,0,0,1.51329-3.5794l6.5955,3.4851a38.91335,38.91335,0,0,1-2.9799,4.3932,19.70987,19.70987,0,0,1-6.0163,5.4128c-2.4985,1.3348-12.837,1.1047-15.6351.6628C328.121,203.14058,328.59893,201.76168,330.13833,201.036Z" class="colorf7b690 svgShape"/><path fill="#979dfe" d="M349.60173,186.74178a8.76064,8.76064,0,0,1,3.4645-4.2472c1.7414-.9429,5.3147-.7431,5.4873,1.7652.10151,1.4766-.7462,3.0888-1.3078,4.4158a39.0889,39.0889,0,0,1-2.1496,4.3152c-.029.05-.0602.0986-.0893.1485l-7.2676-3.0309C348.11513,189.12858,349.163,187.69428,349.60173,186.74178Z" class="color979dfe svgShape"/><path fill="#f7b690" d="M323.82653,197.97938a3.06641,3.06641,0,0,0-1.675,1.6126c-.2861.7424-.2163,2.462.5204,2.1614.6086-.2484.9729-.8995,1.5843-.658a5.70256,5.70256,0,0,1,1.5345,1.2179c1.4532,1.2852,6.9197,2.223,5.7021-1.2508C330.56033,198.40188,326.28163,196.89728,323.82653,197.97938Z" class="colorf7b690 svgShape"/><path fill="#f4a086" d="M355.71063,171.44638c-.3072-.5791-3.67659,1.1579-3.8769,1.5738s-.4126,5.123-1.1329,8.0615c-.1554.6342,6.1295-1.3075,5.6831-2.0752C355.66023,177.76168,354.92093,173.01448,355.71063,171.44638Z" class="colorf4a086 svgShape"/><path fill="#f7b690" d="M345.998,167.20368c1.16379-4.8283,7.76889-3.81,9.33749-3.3285s1.6088,2.7004,1.7601,4.3342a4.12729,4.12729,0,0,1-.8719,2.8117,11.52392,11.52392,0,0,1-3.2312,1.9592c-.9323,1.607-2.4479,3.4447-3.9892,3.4221a2.28245,2.28245,0,0,1-1.7318-1.0173,6.75118,6.75118,0,0,1-.84849-1.8927A11.44015,11.44015,0,0,1,345.998,167.20368Z" class="colorf7b690 svgShape"/><path fill="#222b56" fill-rule="evenodd" d="M357.42983,170.00978a4.81387,4.81387,0,0,0,1.1375-2.4152,4.50647,4.50647,0,0,0-.8138-3.0261c-1.0638-1.5809-3.8112-3.6215-6.031-3.6666-2.3712-.048-6.4439,2.3132-6.0574,5.2474.1156.8778.5978.884,1.4376,1.1644a11.987,11.987,0,0,1,3.509,1.3449c1.0975.8613.6096,2.9386,2.8562,3.6136.7262.2181,1.4725,1.5008,1.9548,2.4981C355.996,174.11878,356.87373,170.68168,357.42983,170.00978Z" class="color222b56 svgShape"/><path fill="#222b56" fill-rule="evenodd" d="M360.761,176.05818a16.08551,16.08551,0,0,1-.05631,2.7755c.1188,2.1563,2.1351,3.715,2.8082,5.767a3.26031,3.26031,0,0,1-.0644,2.4303,1.98576,1.98576,0,0,1-2.0253,1.1377,2.7739,2.7739,0,0,1-1.8253-1.8955,7.24037,7.24037,0,0,0-1.1943-2.456c-.9759-1.0255-2.6661-1.1194-3.6061-2.1781-.9059-1.0204-1.5809-3.8546-1.5809-5.946,0-4.0323,1.2928-7.7117,3.228-7.1312,1.1542.3462,1.4876,2.448,1.7946,3.3723C358.76043,173.50278,360.38843,174.46508,360.761,176.05818Z" class="color222b56 svgShape"/><path fill="#f7b690" d="M354.443,170.37978a.82235.82235,0,0,1,.215.4238,1.89682,1.89682,0,0,1-1.46051,2.2902.80629.80629,0,0,1-.5826-.0571c-.588-.3584-.2897-1.6061-.0072-2.0897C352.90113,170.44488,353.94213,169.91408,354.443,170.37978Z" class="colorf7b690 svgShape"/><path fill="#a2d1eb" d="M318.36983,201.17928l12.8668,1.0289a.90957.90957,0,0,1,.837.9067h0a.90959.90959,0,0,1-.9095.9096h-12.8668a.90968.90968,0,0,1-.9096-.9096v-1.029A.90952.90952,0,0,1,318.36983,201.17928Z" class="colora2d1eb svgShape"/><path fill="#62c1c5" d="M163.00543,207.05748h166.5867a1.51655,1.51655,0,0,0,1.5165-1.5165h0a1.51649,1.51649,0,0,0-1.5165-1.5165H163.00543a1.51649,1.51649,0,0,0-1.5165,1.5165h0A1.51655,1.51655,0,0,0,163.00543,207.05748Z" class="color62c1c5 svgShape"/><path fill="#4c8c7d" d="M128.93774,188.57818l.002.0245a1.94284,1.94284,0,0,1,2.2433,1.7485l3.3191,34.8863a1.3817,1.3817,0,0,0,1.3814,1.2582h20.99439a1.9586,1.9586,0,0,1,0,3.9172H135.88364a5.2934,5.2934,0,0,1-4.0268-1.8589c-1.1546.0858-5.6275.4689-5.6275.4689l-4.5833-1.4583-4.1646-38.9864Z" class="color4c8c7d svgShape"/><path fill="#72b2a2" d="M124.13164,226.49568a1.38154,1.38154,0,0,1-1.3813-1.2582l-3.3192-34.8863a1.95856,1.95856,0,0,0-1.9496-1.773h-.0001a1.95849,1.95849,0,0,0-1.9496,2.1439l3.3182,34.8805a5.30487,5.30487,0,0,0,5.2817,4.8103h20.9942a1.95863,1.95863,0,0,0,1.9587-1.9586h0a1.95863,1.95863,0,0,0-1.9587-1.9586Z" class="color72b2a2 svgShape"/><rect width="3.185" height="29.603" x="136.015" y="230.413" fill="#9797c2" class="color9797c2 svgShape"/><path fill="#4b4b6d" d="M126.25664 260.01588h0a3.18484 3.18484 0 013.1849-3.1848h16.3308a3.18482 3.18482 0 013.1848 3.1848h-22.7005zM139.06054 233.459h-2.9073a2.91735 2.91735 0 01-2.4538-1.3395l-1.0973-1.7066h10.0095l-1.0974 1.7066A2.91692 2.91692 0 01139.06054 233.459z" class="color4b4b6d svgShape"/><path fill="#f0ad82" d="M275.31983,234.81978h15.9818a5.3047,5.3047,0,0,0,5.2817-4.8102l2.9239-31.225a5.30486,5.30486,0,0,0-5.2817-5.7994h-21.8296a5.30486,5.30486,0,0,0-5.2817,5.7994l2.9239,31.225A5.30471,5.30471,0,0,0,275.31983,234.81978Z" class="colorf0ad82 svgShape"/><rect width="3.185" height="25.196" x="281.718" y="234.82" fill="#4b4b6d" transform="rotate(180 283.31 247.418)" class="color4b4b6d svgShape"/><path fill="#4b4b6d" d="M294.66093,260.01588h0a3.18481,3.18481,0,0,0-3.1848-3.1848h-16.3308a3.18482,3.18482,0,0,0-3.1848,3.1848h22.7004Z" class="color4b4b6d svgShape"/><polygon fill="#4b4b6d" points="280.265 237.866 286.357 237.866 288.316 234.82 278.306 234.82 280.265 237.866" class="color4b4b6d svgShape"/><path fill="#72b2a2" d="M238.30783,234.81978h15.9818a5.30463,5.30463,0,0,0,5.2817-4.8102l2.9239-31.225a5.30481,5.30481,0,0,0-5.2817-5.7994h-21.8296a5.30479,5.30479,0,0,0-5.2816,5.7994l2.9238,31.225A5.30478,5.30478,0,0,0,238.30783,234.81978Z" class="color72b2a2 svgShape"/><rect width="3.185" height="25.196" x="244.706" y="234.82" fill="#4b4b6d" transform="rotate(180 246.299 247.418)" class="color4b4b6d svgShape"/><path fill="#4b4b6d" d="M257.64893,260.01588h0a3.18476,3.18476,0,0,0-3.1848-3.1848h-16.3308a3.18482,3.18482,0,0,0-3.1848,3.1848h22.7004Z" class="color4b4b6d svgShape"/><polygon fill="#4b4b6d" points="243.253 237.866 249.345 237.866 251.304 234.82 241.294 234.82 243.253 237.866" class="color4b4b6d svgShape"/><path fill="#828feb" d="M201.29583,234.81978h15.9819a5.30478,5.30478,0,0,0,5.2817-4.8102l2.9238-31.225a5.30479,5.30479,0,0,0-5.2816-5.7994H198.372a5.30481,5.30481,0,0,0-5.28171,5.7994l2.9239,31.225A5.30461,5.30461,0,0,0,201.29583,234.81978Z" class="color828feb svgShape"/><rect width="3.185" height="25.196" x="207.694" y="234.82" fill="#4b4b6d" transform="rotate(180 209.287 247.418)" class="color4b4b6d svgShape"/><path fill="#4b4b6d" d="M220.637,260.01588h0a3.18485,3.18485,0,0,0-3.18491-3.1848h-16.3307a3.18476,3.18476,0,0,0-3.1848,3.1848H220.637Z" class="color4b4b6d svgShape"/><polygon fill="#4b4b6d" points="206.241 237.866 212.333 237.866 214.292 234.82 204.282 234.82 206.241 237.866" class="color4b4b6d svgShape"/><path fill="#f4a086" d="M165.12663,201.22208c-1.5404-.7261-10.37039-1.9596-11.93149-2.6399-2.1509-.9373-3.7809-3.4639-4.8375-5.5588a38.57122,38.57122,0,0,1-1.5141-3.5814l-6.5992,3.487a38.91006,38.91006,0,0,0,2.9816,4.3957,19.72256,19.72256,0,0,0,6.0195,5.4158c2.4999,1.3355,12.84419,1.4972,15.64379,1.0551C167.145,203.32778,166.66693,201.94808,165.12663,201.22208Z" class="colorf4a086 svgShape"/><path fill="#cc346f" d="M142.186,182.27838c-1.7424-.9434-5.3177-.7435-5.4904,1.7662-.1016,1.4775.7466,3.0906,1.3086,4.4183a39.087,39.087,0,0,0,2.1508,4.3175c.0289.05.0602.0987.0893.1486l7.2717-3.0325C145.91844,187.88388,144.42124,183.48858,142.186,182.27838Z" class="colorcc346f svgShape"/><path fill="#f4a086" d="M171.47133 200.66918a3.0695 3.0695 0 011.0295 2.0863c.0173.7958-.63179 2.3907-1.2232 1.8578-.48859-.4402-.6107-1.1767-1.2681-1.1568a5.70668 5.70668 0 00-1.8576.6257c-1.80389.7166-7.2675-.2554-4.9428-3.112C164.98963 198.78218 169.52753 198.81768 171.47133 200.66918zM183.55 254.753c.373.56.87139 1.1849 1.54239 1.1691 1.1585-.0274 1.2429-1.6806.9527-2.7937q-.46935-1.801-.9388-3.602l-3.6384 1.0635A15.18352 15.18352 0 00183.55 254.753z" class="colorf4a086 svgShape"/><path fill="#0a3c5f" fill-rule="evenodd" d="M174.37563,219.98658c-2.9277-3.2338-21.22919-7.2537-29.83609-9.8868-6.4274-1.9663-13.0414-3.072-14.0202,5.6089a10.11517,10.11517,0,0,0,4.6916,9.5611c3.4939,2.1456,7.8861,1.9445,11.9773,1.6736,7.8002-.5164,12.58349-.833,20.38359-1.3494.746,10.208,9.421,13.8623,13.3048,25.1687l5.8349-1.1897C183.17393,244.24968,175.83013,221.85038,174.37563,219.98658Z" class="color0a3c5f svgShape"/><path fill="#0a3c5f" fill-rule="evenodd" d="M129.06184,225.26978c3.4939,2.1456,7.8861,1.9445,11.9774,1.6736q12.11565-.802,24.23149-1.6042c1.28931-.0853,2.73631-.2492,3.5405-1.2606.9391-1.1812.4844-3.027-.5848-4.092a9.36818,9.36818,0,0,0-4.01639-1.984q-12.9099-3.95145-25.8196-7.9028c-6.4274-1.9663-13.0414-3.0719-14.0202,5.6089A10.11536,10.11536,0,0,0,129.06184,225.26978Z" class="color0a3c5f svgShape"/><path fill="#cc346f" d="M129.234,188.785c.4404,3.287,1.703,6.4743,1.6498,9.7903a12.60371,12.60371,0,0,1-3.9211,8.8704c-1.4914,1.4018-3.5391,2.9934-3.005,4.9693.4804,1.7774,2.7028,2.3038,4.5322,2.5117,3.9891.4533,8.5407.7336,11.4753-2.0063,1.797-1.6778,2.5746-4.1588,3.1465-6.5499a66.28118,66.28118,0,0,0,1.7702-12.9239c.1391-3.7065-.1085-7.6578-2.2391-10.6938-2.1228-3.025-4.5052-5.0308-7.9789-3.9644C130.714,182.66318,128.79724,185.525,129.234,188.785Z" class="colorcc346f svgShape"/><path fill="#222b54" fill-rule="evenodd" d="M181.90263,252.22488c.2263.3965,1.2705.582,1.7009.5992.3401.0136,1.8976-.6961,2.2342-.5799.24231.0836,1.1459,3.3344,2.2679,4.0239a26.60309,26.60309,0,0,0,3.5599,1.5826,3.88843,3.88843,0,0,1,1.17351.7,1.41192,1.41192,0,0,1,.49829,1.1805.6548.6548,0,0,1-.0348.1011h-7.3399c-.2133-.2503-.4055-.5223-.5923-.7897q-1.00693-1.44135-2.0139-2.8827c-.2116,1.0499-.39439,2.281-.5975,3.6724h-.8198C181.67743,258.713,180.95373,253.38768,181.90263,252.22488Z" class="color222b54 svgShape"/><path fill="#f4a086" d="M165.53083,254.753c.14321.56.368,1.1849.9036,1.1691.92461-.0274,1.4404-1.6806,1.513-2.7937q.1176-1.801.2351-3.602l-3.1693,1.0635A13.99,13.99,0,0,0,165.53083,254.753Z" class="colorf4a086 svgShape"/><path fill="#0a3c5f" fill-rule="evenodd" d="M169.347,222.67218c-.68161-4.5133-7.567-3.1961-8.24871.0479-2.1821,10.2079,3.3961,16.7362,3.3998,28.0426l4.9426-1.1897C168.14233,244.47128,169.85583,226.04078,169.347,222.67218Z" class="color0a3c5f svgShape"/><path fill="#222b54" fill-rule="evenodd" d="M164.85453,252.22488c.2263.3965,1.27051.582,1.701.5992.34.0136,1.89751-.6961,2.2341-.5799.2423.0836,1.1459,3.3344,2.2679,4.0239a26.60366,26.60366,0,0,0,3.5599,1.5826,3.88891,3.88891,0,0,1,1.17361.7,1.4122,1.4122,0,0,1,.49829,1.1805.66675.66675,0,0,1-.0349.1011h-7.3399c-.2133-.2503-.40549-.5223-.5923-.7897q-1.007-1.44135-2.0138-2.8827c-.2116,1.0499-.3945,2.281-.5975,3.6724h-.8198C164.62933,258.713,163.90563,253.38768,164.85453,252.22488Z" class="color222b54 svgShape"/><path fill="#f7b690" d="M160.924,200.83008c-1.54031-.726-10.3704-1.5676-11.9314-2.2479-2.1509-.9373-3.7809-3.4639-4.8375-5.5588a38.57122,38.57122,0,0,1-1.5141-3.5814l-6.5992,3.487a38.92252,38.92252,0,0,0,2.9815,4.3957,19.72326,19.72326,0,0,0,6.0197,5.4158c2.4998,1.3355,12.84409,1.1053,15.64369.6632C162.94253,202.93578,162.46443,201.55618,160.924,200.83008Z" class="colorf7b690 svgShape"/><path fill="#cc346f" d="M141.44984,186.528a8.765,8.765,0,0,0-3.4663-4.2496c-1.7424-.9434-5.3177-.7435-5.4903,1.7662-.1017,1.4775.7465,3.0906,1.3085,4.4183a39.087,39.087,0,0,0,2.1508,4.3175c.0289.05.0602.0987.0893.1486l7.2717-3.0325C142.93734,188.91608,141.88884,187.481,141.44984,186.528Z" class="colorcc346f svgShape"/><path fill="#f7b690" d="M167.23943,197.77168a3.06883,3.06883,0,0,1,1.6759,1.6136c.2862.7428.2164,2.4633-.5207,2.1625-.6089-.2485-.9735-.8999-1.5852-.6583a5.70893,5.70893,0,0,0-1.53539,1.2187c-1.454,1.2858-6.92341,2.2241-5.70521-1.2515C160.50193,198.19448,164.78293,196.689,167.23943,197.77168Z" class="colorf7b690 svgShape"/><path fill="#f4a086" d="M135.33764,171.22408c.3073-.5795,3.6786,1.1585,3.879,1.5747s.4128,5.1258,1.1335,8.066c.1555.6344-6.1328-1.3083-5.6862-2.0764C135.38814,177.54288,136.12774,172.793,135.33764,171.22408Z" class="colorf4a086 svgShape"/><path fill="#f7b690" d="M145.05564,166.97908c-1.1645-4.831-7.7732-3.8122-9.3427-3.3304s-1.6097,2.7019-1.761,4.3366a4.12921,4.12921,0,0,0,.8723,2.8133,11.52689,11.52689,0,0,0,3.233,1.9602c.9328,1.6079,2.4492,3.4466,3.9914,3.424a2.2832,2.2832,0,0,0,1.7327-1.0178,6.75234,6.75234,0,0,0,.849-1.8938A11.44691,11.44691,0,0,0,145.05564,166.97908Z" class="colorf7b690 svgShape"/><path fill="#222b56" fill-rule="evenodd" d="M133.61744,169.78668a4.817,4.817,0,0,1-1.1381-2.4165,4.50894,4.50894,0,0,1,.8143-3.0278c1.0643-1.5818,3.8132-3.6235,6.0343-3.6686,2.3725-.0481,6.4474,2.3145,6.0607,5.2502-.1157.8783-.5981.8845-1.4383,1.1651a11.99111,11.99111,0,0,0-3.5109,1.3456c-1.0982.8618-.61,2.9403-2.8579,3.6156-.7266.2183-1.4733,1.5016-1.9559,2.4996C135.052,173.898,134.17394,170.459,133.61744,169.78668Z" class="color222b56 svgShape"/><path fill="#222b56" fill-rule="evenodd" d="M131.516,163.41068a4.64115,4.64115,0,0,0-3.6313.3883,5.14214,5.14214,0,0,0-1.5753,1.727,10.1076,10.1076,0,0,0-1.4276,6.0408c.3194,3.8599,2.8487,7.3999,2.5689,11.2629a3.8548,3.8548,0,0,1-.4216,1.6211,1.92053,1.92053,0,0,1-1.2999.9886,5.656,5.656,0,0,0,5.2798-1.672,8.38134,8.38134,0,0,0,1.7411-3.4436,16.94921,16.94921,0,0,0-.0725-9.3668,8.63259,8.63259,0,0,1-.4953-2.1579,2.19163,2.19163,0,0,1,.8689-1.9378c.5061-.3287,1.4382-.2513,1.5704-.9773C134.88214,164.45328,132.47934,163.66458,131.516,163.41068Z" class="color222b56 svgShape"/><path fill="#f7b690" d="M136.60594,170.15688a.82221.82221,0,0,0-.2151.424,1.898,1.898,0,0,0,1.4612,2.2916.80782.80782,0,0,0,.583-.0572c.5884-.3586.2899-1.607.0072-2.0909C138.14874,170.22208,137.107,169.69088,136.60594,170.15688Z" class="colorf7b690 svgShape"/></svg>